<svg version="1.1" xmlns="http://www.w3.org/2000/svg" viewBox="-1168.5059690872204 -2499.173970388425 4262.011855077804 4262.014658324333"><desc>Created with Snap</desc><defs></defs><g><g transform="matrix(9.1857,0,0,9.1857,-874.6357,-2205.3023)">
<g id="gSkz9bkc5d7o1">
	<g>
		<g>
			<g>
				<path d="M388.32025,216.49532c-0.19257,3.17145,1.66949,6.00197,4.49582,6.34879
					c2.78461,0.34386,5.49353-2.09171,5.70404-5.46553c0.26233-3.36794-1.83084-6.21516-4.655-6.35762
					C391.04321,210.87752,388.56564,213.32977,388.32025,216.49532z" fill="#603f83" style=""></path>
				<path d="M351.07425,287.23575c1.46536-2.54462,4.67514-3.52515,7.14114-2.21649c2.52744,1.34402,3.28909,4.62256,1.7218,7.34503
					L351.07425,287.23575z" fill="#603f83" style=""></path>
				<path d="M325.79657,272.6145c1.2153-2.11432,4.23398-2.73718,6.69803-1.42755c2.52914,1.34402,3.48068,4.26395,2.16342,6.55508
					L325.79657,272.6145z" fill="#603f83" style=""></path>
				<path d="M388.32025,216.49532c-0.19257,3.17145,1.66949,6.00197,4.49582,6.34879
					c2.78461,0.34386,5.49353-2.09171,5.70404-5.46553c0.26233-3.36794-1.83084-6.21516-4.655-6.35762
					C391.04321,210.87752,388.56564,213.32977,388.32025,216.49532z" fill="#603f83" style=""></path>
				<path d="M382.63931,248.94954c-0.86212,3.06041,0.61923,6.2122,3.32056,7.04141c2.70328,0.82921,5.6539-1.13771,6.56982-4.39659
					c0.93286-3.26183-0.79361-6.47256-3.51654-7.09447C386.22513,243.86128,383.51938,245.88715,382.63931,248.94954z" fill="#603f83" style=""></path>
				<path d="M371.3418,279.95459c-1.26541,2.91895-0.5239,6.20142,2.02884,7.50809c2.47879,1.27133,5.89337-0.06876,7.24625-3.1734
					c1.40152-3.08203,0.41193-6.48239-2.19165-7.58572C375.82364,275.60123,372.65686,277.05923,371.3418,279.95459z" fill="#603f83" style=""></path>
				<path d="M343.03046,225.27869c-0.43719,2.39626,1.4924,4.8279,4.21802,5.40952c2.80475,0.59735,5.39282-1.04338,5.86591-3.64008
					c0.23135-1.29393-0.12357-2.55936-0.88815-3.53693c-0.8049-0.9864-2.01041-1.68396-3.40921-1.8844
					c-1.39978-0.20042-2.72662,0.12379-3.74667,0.78894C344.00925,223.07498,343.24637,224.07318,343.03046,225.27869z" fill="#603f83" style=""></path>
				<path d="M336.54047,249.71292c-0.87613,2.27345,0.50644,4.96643,3.13113,6.03143c2.61462,1.06207,5.54169-0.06189,6.4888-2.5289
					c0.8432-2.50336-0.64993-5.23563-3.34067-6.10611C340.13043,246.23888,337.31366,247.40311,336.54047,249.71292z" fill="#603f83" style=""></path>
				<path d="M371.793,230.3237c-0.52243,2.88358,1.32538,5.70918,4.05249,6.29082c2.80325,0.59636,5.47461-1.43639,6.03314-4.52136
					c0.27411-1.53758-0.0452-3.02408-0.78525-4.16277c-0.78033-1.14557-1.97159-1.94237-3.36938-2.14279
					c-1.40079-0.20042-2.74237,0.22302-3.78748,1.04733C372.85065,227.65431,372.05188,228.87357,371.793,230.3237z" fill="#603f83" style=""></path>
				<path d="M363.97913,259.70572c-1.04587,2.74011,0.18689,5.8074,2.81308,6.87341c2.61288,1.06107,5.69125-0.43622,6.80832-3.3699
					c1.01343-2.97101-0.35492-6.08743-3.04422-6.95694C367.86554,255.38182,364.92279,256.92825,363.97913,259.70572z" fill="#603f83" style=""></path>
				<path d="M359.2276,213.97527c-0.15082,2.68512,1.75888,5.11577,4.5845,5.46356c2.78653,0.34288,5.44659-1.69379,5.61508-4.58031
					c0.21985-2.87965-1.89346-5.33093-4.71933-5.47339C361.88644,209.24168,359.43024,211.29703,359.2276,213.97527z" fill="#603f83" style=""></path>
				<path d="M354.42892,241.40508c-0.73416,2.58098,0.86411,5.34665,3.56494,6.17587
					c2.70499,0.82921,5.53772-0.7516,6.32544-3.53104c0.80389-2.78041-1.01245-5.59914-3.73712-6.22203
					C357.79489,237.18927,355.18027,238.82411,354.42892,241.40508z" fill="#603f83" style=""></path>
				<path d="M344.88635,267.59106c-1.05542,2.46899-0.13263,5.39481,2.41962,6.70053
					c2.48026,1.27231,5.71262,0.28885,6.85547-2.36581c1.19125-2.63208,0.04446-5.66202-2.56058-6.76633
					C348.99976,264.0571,345.99115,265.14471,344.88635,267.59106z" fill="#603f83" style=""></path>
				<path d="M330.10104,211.45226c-0.10855,2.19682,1.85248,4.22957,4.67807,4.57738
					c2.78384,0.3419,5.39505-1.29491,5.52179-3.69412c0.17706-2.39136-1.95663-4.44572-4.77979-4.58818
					C332.69971,207.60487,330.2612,209.26231,330.10104,211.45226z" fill="#603f83" style=""></path>
				<path d="M326.18585,233.85277c-0.60568,2.09956,1.11316,4.4801,3.814,5.30931c2.7023,0.82921,5.4169-0.36646,6.07639-2.66447
					c0.67496-2.29999-1.23129-4.7267-3.95349-5.34862C329.33545,230.51038,326.80801,231.75223,326.18585,233.85277z" fill="#603f83" style=""></path>
				<path d="M318.40021,255.21382c-0.84543,2.019,0.26282,4.58818,2.81531,5.89388c2.47757,1.27133,5.52692,0.64551,6.46002-1.55917
					c0.98077-2.18307-0.32346-4.84265-2.92606-5.94499C322.14838,252.50119,319.29477,253.21742,318.40021,255.21382z" fill="#603f83" style=""></path>
				<path d="M374.47223,200.00148c-0.07025,2.93269,2.16071,5.38988,4.98706,5.49106
					c2.82437,0.10022,5.18182-2.35696,5.25256-5.49106H374.47223z" fill="#603f83" style=""></path>
				<path d="M345.27051,200.00049c-0.07025,2.44244,2.173,4.49681,4.99762,4.59702c2.82635,0.10022,5.16956-1.95316,5.2403-4.59702
					H345.27051z" fill="#603f83" style=""></path>
			</g>
			<g>
				<path d="M354.82193,308.48083c-1.84067,2.5918-1.51056,6.0737,0.73807,7.77634c2.25873,1.7095,5.6839,0.86359,7.64221-1.89423
					c1.99295-2.73227,1.52261-6.3085-0.84909-7.84802C359.98312,304.97635,356.69846,305.9166,354.82193,308.48083z" fill="#603f83" style=""></path>
				<path d="M287.22568,351.08014c1.27844-0.73587,2.72614-0.90683,4.05075-0.60324
					c1.30106,0.26822,2.48987,1.02768,3.23581,2.22824c0.74545,1.20059,0.8992,2.62128,0.52463,3.9584
					c-0.39468,1.30081-1.3288,2.49945-2.68387,3.28052L287.22568,351.08014z" fill="#603f83" style=""></path>
				<path d="M272.59927,325.80588c1.06329-0.61111,2.31668-0.66711,3.50156-0.27902c1.16129,0.35269,2.2634,1.16522,3.00885,2.36581
					c0.74594,1.20157,0.98566,2.56818,0.75085,3.82086c-0.25519,1.2153-0.99475,2.29898-2.13467,2.95428L272.59927,325.80588z" fill="#603f83" style=""></path>
				<path d="M354.82193,308.48083c-1.84067,2.5918-1.51056,6.0737,0.73807,7.77634c2.25873,1.7095,5.6839,0.86359,7.64221-1.89423
					c1.99295-2.73227,1.52261-6.3085-0.84909-7.84802C359.98312,304.97635,356.69846,305.9166,354.82193,308.48083z" fill="#603f83" style=""></path>
				<path d="M333.6785,333.71384c-2.29041,2.19684-2.59473,5.65024-0.67004,7.71933c1.92615,2.0701,5.47412,1.86182,7.90845-0.47845
					c2.34665-2.43851,2.55225-5.98526,0.48288-7.91092C339.33118,331.11813,335.88196,331.41977,333.6785,333.71384z" fill="#603f83" style=""></path>
				<path d="M308.41479,354.86954c-2.56378,1.87558-3.51138,5.15704-1.97183,7.52972
					c1.53708,2.36975,5.11871,2.84528,7.84952,0.85278c2.75757-1.95612,3.60052-5.38397,1.89496-7.63876
					C314.48282,353.3595,311.00583,353.03036,308.41479,354.86954z" fill="#603f83" style=""></path>
				<path d="M311.25098,293.3782c-1.60071,1.84018-1.19275,4.87799,0.90436,6.77319c2.09833,1.89618,5.202,1.80875,6.93359-0.18668
					c1.73825-1.99149,1.177-5.15112-1.02768-6.87146C315.80917,291.33365,312.8588,291.54193,311.25098,293.3782z" fill="#603f83" style=""></path>
				<path d="M293.34064,311.28387c-1.84042,1.60437-2.04749,4.55869-0.28958,6.81052
					c1.72031,2.20569,4.87726,2.76471,6.87341,1.02966c1.99664-1.73309,2.08163-4.83478,0.18643-6.93436
					C298.21667,310.0921,295.18179,309.68243,293.34064,311.28387z" fill="#603f83" style=""></path>
				<path d="M333.60703,312.16513c-1.91583,2.21552-1.77362,5.55005,0.32471,7.44623c2.09711,1.8952,5.4675,1.51202,7.5145-0.8587
					c2.05386-2.36679,1.73849-5.84082-0.46497-7.56015C338.72769,309.43188,335.5307,309.95358,333.60703,312.16513z" fill="#603f83" style=""></path>
				<path d="M312.11996,333.64606c-2.21597,1.92075-2.73645,5.12164-0.97757,7.37448
					c1.71933,2.20468,5.19043,2.5181,7.56238,0.46765c2.37219-2.04846,2.75293-5.41739,0.8587-7.51498
					C317.66827,331.87463,314.33694,331.72925,312.11996,333.64606z" fill="#603f83" style=""></path>
				<path d="M330.91919,291.70602c-1.55795,2.18896-0.98837,5.35156,1.2598,7.05319c2.26019,1.71051,5.44489,1.1839,7.12051-1.17209
					c1.71024-2.32947,1.02203-5.56967-1.35117-7.11118C335.57886,288.93738,332.51303,289.54358,330.91919,291.70602z" fill="#603f83" style=""></path>
				<path d="M313.03244,313.06213c-1.94406,1.85101-1.95807,5.03226-0.03391,7.10037c1.9274,2.07108,5.1843,2.13394,7.27231,0.1405
					c1.99936-2.0907,1.93402-5.34763-0.13681-7.27524C318.06616,311.10309,314.88834,311.11584,313.03244,313.06213z" fill="#603f83" style=""></path>
				<path d="M291.65002,330.95898c-2.16144,1.59454-2.77402,4.65594-1.23495,7.02866
					c1.53806,2.37167,4.78415,3.06433,7.11264,1.35483c2.35449-1.67413,2.87939-4.8613,1.17258-7.11807
					C296.99619,329.97159,293.83801,329.40274,291.65002,330.95898z" fill="#603f83" style=""></path>
				<path d="M306.98898,274.91153c-1.27527,1.78516-0.46252,4.63043,1.78564,6.33304c2.258,1.70856,5.20172,1.50024,6.59439-0.45193
					c1.42731-1.92664,0.52072-4.83182-1.85001-6.37137C311.14954,272.88272,308.29959,273.15192,306.98898,274.91153z" fill="#603f83" style=""></path>
				<path d="M292.36258,292.38687c-1.5975,1.50418-1.31824,4.41525,0.60593,6.48337c1.92566,2.0701,4.89102,2.40414,6.63248,0.75751
					c1.65155-1.7439,1.31503-4.70901-0.75357-6.63467C296.77905,291.06741,293.87067,290.78738,292.36258,292.38687z" fill="#603f83" style=""></path>
				<path d="M274.86584,307.02188c-1.75864,1.31061-2.03372,4.15686-0.49466,6.52954
					c1.53659,2.36874,4.44669,3.28049,6.37234,1.85297c1.95096-1.3912,2.15729-4.33765,0.45218-6.59244
					C279.49161,306.55911,276.65054,305.74759,274.86584,307.02188z" fill="#603f83" style=""></path>
				<path d="M351.07648,287.23181c-0.7359,1.27917-0.90683,2.72833-0.60522,4.0527c0.26749,1.3028,1.02621,2.49255,2.22754,3.23825
					c1.20035,0.74573,2.62149,0.89801,3.95938,0.52271c1.30154-0.39496,2.50089-1.33029,3.28122-2.68512L351.07648,287.23181z" fill="#603f83" style=""></path>
				<path d="M325.80099,272.6076c-0.61087,1.06207-0.66614,2.3157-0.27878,3.50058c0.35269,1.16129,1.16495,2.26364,2.3653,3.00934
					c1.20132,0.7457,2.5687,0.98541,3.82111,0.75061c1.21558-0.25446,2.29877-0.99524,2.95407-2.13394L325.80099,272.6076z" fill="#603f83" style=""></path>
			</g>
			<g>
				<path d="M279.88043,371.37518c-2.89709,1.31653-4.35754,4.48404-3.2562,7.08563c1.10211,2.60455,4.50296,3.5939,7.5867,2.19193
					c3.10635-1.3519,4.44598-4.76208,3.17563-7.24283C286.08157,370.8584,282.80084,370.11075,279.88043,371.37518z" fill="#603f83" style=""></path>
				<path d="M199.99388,374.47195c2.93294-0.06973,5.38545,2.16147,5.48592,4.98804
					c0.10045,2.82367-2.35207,5.18161-5.48616,5.25137L199.99388,374.47195z" fill="#603f83" style=""></path>
				<path d="M199.99094,345.27075c2.4444-0.06976,4.49728,2.17322,4.5975,4.99786c0.1002,2.82559-1.95268,5.1698-4.59801,5.23956
					L199.99094,345.27075z" fill="#603f83" style=""></path>
				<path d="M279.88043,371.37518c-2.89709,1.31653-4.35754,4.48404-3.2562,7.08563c1.10211,2.60455,4.50296,3.5939,7.5867,2.19193
					c3.10635-1.3519,4.44598-4.76208,3.17563-7.24283C286.08157,370.8584,282.80084,370.11075,279.88043,371.37518z" fill="#603f83" style=""></path>
				<path d="M248.90117,382.65305c-3.05724,0.87442-5.08604,3.58411-4.44843,6.3714c0.62192,2.72342,3.83461,4.44669,7.09079,3.5202
					c3.26601-0.91861,5.23-3.86801,4.40102-6.57178C255.11656,383.27203,251.96822,381.78946,248.90117,382.65305z" fill="#603f83" style=""></path>
				<path d="M216.41405,388.32687c-3.16457,0.24463-5.62027,2.72244-5.47879,5.54413
					c0.14146,2.82462,2.99139,4.9173,6.35811,4.65598c3.37161-0.21124,5.80717-2.91208,5.46454-5.70035
					C222.41257,390.00397,219.58401,388.13333,216.41405,388.32687z" fill="#603f83" style=""></path>
				<path d="M249.66504,336.55615c-2.30833,0.77322-3.47502,3.59097-2.60626,6.28098
					c0.86949,2.69101,3.60446,4.18341,6.10634,3.34042c2.4675-0.94119,3.59023-3.87292,2.52989-6.4863
					C254.63025,337.06506,251.93948,335.68567,249.66504,336.55615z" fill="#603f83" style=""></path>
				<path d="M225.22981,343.03952c-1.20697,0.21518-2.20468,0.97955-2.86514,2.03964
					c-0.66588,1.01489-0.99083,2.34616-0.79089,3.74423c0.19994,1.40002,0.89676,2.60257,1.8839,3.41214
					c0.97781,0.76535,2.243,1.12003,3.53717,0.88815c2.5994-0.47256,4.23694-3.06238,3.64131-5.86343
					C230.05551,344.53094,227.62706,342.60233,225.22981,343.03952z" fill="#603f83" style=""></path>
				<path d="M259.64825,363.99875c-2.77527,0.94318-4.32561,3.88669-3.45612,6.5777c0.86874,2.69,3.98788,4.05762,6.9567,3.04468
					c2.93466-1.11118,4.43073-4.19321,3.37112-6.8056C265.45447,364.18835,262.38962,362.95828,259.64825,363.99875z" fill="#603f83" style=""></path>
				<path d="M230.26453,371.80356c-1.45087,0.25839-2.67012,1.05814-3.49098,2.14377
					c-0.82529,1.04044-1.24922,2.38544-1.04929,3.78448c0.20018,1.39908,0.99574,2.58688,2.14229,3.37189
					c1.13844,0.74176,2.62518,1.06009,4.16325,0.78598c3.08743-0.55804,5.11748-3.23041,4.5226-6.02948
					C235.97101,373.12793,233.14983,371.28186,230.26453,371.80356z" fill="#603f83" style=""></path>
				<path d="M267.52872,344.91507c-2.44785,1.10529-3.53815,4.11462-2.43704,6.71625
					c1.10284,2.60553,4.13327,3.75208,6.76755,2.56033c2.65637-1.14166,3.63959-4.37009,2.36801-6.85278
					C272.92276,344.78833,269.99915,343.85989,267.52872,344.91507z" fill="#603f83" style=""></path>
				<path d="M241.36458,354.44022c-2.57729,0.7457-4.21434,3.36499-3.57648,6.15131c0.62192,2.72537,3.44261,4.53903,6.21884,3.7403
					c2.78484-0.78894,4.36368-3.62143,3.53423-6.32718C246.71318,355.3038,243.95021,353.70532,241.36458,354.44022z" fill="#603f83" style=""></path>
				<path d="M213.90627,359.23273c-2.67676,0.20239-4.73555,2.65958-4.59407,5.48029
					c0.14172,2.82657,2.59448,4.93988,5.47339,4.71982c2.88504-0.16898,4.92197-2.82169,4.57933-5.61093
					C219.01933,360.99924,216.58966,359.08145,213.90627,359.23273z" fill="#603f83" style=""></path>
				<path d="M255.16251,318.42352c-1.99763,0.89505-2.71582,3.75012-1.61472,6.35175
					c1.10185,2.60257,3.76117,3.90631,5.94522,2.92484c2.2059-0.93237,2.83224-3.97708,1.56189-6.45685
					C259.75067,318.69174,257.18246,317.57861,255.16251,318.42352z" fill="#603f83" style=""></path>
				<path d="M233.81914,326.19592c-2.0966,0.617-3.34042,3.14786-2.70255,5.93417c0.62117,2.72342,3.04936,4.6265,5.34492,3.95642
					c2.30318-0.66119,3.49638-3.37479,2.66792-6.07761C238.30121,327.30807,235.92311,325.58875,233.81914,326.19592z" fill="#603f83" style=""></path>
				<path d="M211.39578,330.10519c-2.18846,0.16016-3.84959,2.59964-3.70811,5.42133
					c0.14148,2.82266,2.19682,4.9566,4.58719,4.77878c2.39774-0.12772,4.03554-2.73129,3.69388-5.51859
					C215.62265,331.96405,213.59163,329.99518,211.39578,330.10519z" fill="#603f83" style=""></path>
				<path d="M287.22937,351.07816c-2.54462,1.46588-3.53006,4.67661-2.22064,7.14264
					c1.34305,2.52792,4.62625,3.28836,7.34845,1.72031L287.22937,351.07816z" fill="#603f83" style=""></path>
				<path d="M272.60715,325.80096c-2.11331,1.21533-2.73767,4.23349-1.42877,6.69754
					c1.34427,2.52991,4.26517,3.4819,6.55557,2.16443L272.60715,325.80096z" fill="#603f83" style=""></path>
			</g>
			<g>
				<path d="M183.5047,388.32001c-3.17194-0.19257-6.00221,1.6702-6.34927,4.49582
					c-0.34361,2.78531,2.09195,5.49402,5.46553,5.70425c3.36818,0.26233,6.2159-1.83035,6.3586-4.65497
					C189.12227,391.04343,186.67049,388.56561,183.5047,388.32001z" fill="#603f83" style=""></path>
				<path d="M112.76404,351.07425c2.54462,1.46585,3.52587,4.6756,2.21622,7.14163
					c-1.34329,2.52692-4.62207,3.28836-7.34427,1.72128L112.76404,351.07425z" fill="#603f83" style=""></path>
				<path d="M127.38503,325.79703c2.11478,1.21533,2.73743,4.23349,1.42828,6.69757c-1.34427,2.5289-4.2637,3.4809-6.55582,2.16342
					L127.38503,325.79703z" fill="#603f83" style=""></path>
				<path d="M183.5047,388.32001c-3.17194-0.19257-6.00221,1.6702-6.34927,4.49582
					c-0.34361,2.78531,2.09195,5.49402,5.46553,5.70425c3.36818,0.26233,6.2159-1.83035,6.3586-4.65497
					C189.12227,391.04343,186.67049,388.56561,183.5047,388.32001z" fill="#603f83" style=""></path>
				<path d="M151.05049,382.63931c-3.06042-0.86163-6.21271,0.61896-7.04143,3.32077
					c-0.82945,2.70279,1.13722,5.65417,4.39635,6.56982c3.26207,0.93237,6.47256-0.79382,7.09497-3.51627
					C156.13899,386.22534,154.11311,383.51959,151.05049,382.63931z" fill="#603f83" style=""></path>
				<path d="M120.04519,371.3418c-2.91846-1.26544-6.20116-0.52368-7.5081,2.02881c-1.27059,2.47879,0.06926,5.89389,3.1734,7.24677
					c3.08204,1.401,6.4824,0.41165,7.58572-2.19193C124.39854,375.82385,122.9408,372.65732,120.04519,371.3418z" fill="#603f83" style=""></path>
				<path d="M174.72084,343.0307c-2.39552-0.43723-4.8279,1.49237-5.40854,4.21777c-0.5976,2.80496,1.04242,5.39282,3.64009,5.86636
					c1.29343,0.2309,2.55861-0.12378,3.53667-0.88815c0.98616-0.80563,1.68398-2.01114,1.8844-3.40921
					c0.20067-1.40002-0.12453-2.72736-0.78893-3.74716C176.92479,344.00925,175.92709,343.24683,174.72084,343.0307z" fill="#603f83" style=""></path>
				<path d="M150.2876,336.54044c-2.27371-0.87637-4.96692,0.50696-6.03218,3.13116
					c-1.06181,2.61438,0.0619,5.54214,2.52866,6.48926c2.5036,0.84299,5.2366-0.65039,6.10709-3.3414
					C153.76089,340.1304,152.5974,337.31366,150.2876,336.54044z" fill="#603f83" style=""></path>
				<path d="M169.67632,371.79276c-2.88358-0.5217-5.70894,1.32535-6.29031,4.0527
					c-0.59686,2.80301,1.43613,5.47437,4.52136,6.03342c1.53758,0.27411,3.02406-0.0452,4.16226-0.785
					c1.14607-0.78107,1.94261-1.97183,2.14304-3.3699c0.20067-1.40103-0.22327-2.7421-1.04732-3.78745
					C172.34521,372.85086,171.12645,372.05212,169.67632,371.79276z" fill="#603f83" style=""></path>
				<path d="M140.2948,363.9791c-2.74062-1.04535-5.80792,0.18668-6.8739,2.81284c-1.06108,2.6134,0.43597,5.6915,3.36989,6.80856
					c2.97054,1.01392,6.08745-0.35468,6.95718-3.0437C144.61844,367.86578,143.07153,364.92325,140.2948,363.9791z" fill="#603f83" style=""></path>
				<path d="M186.02475,359.22781c-2.68486-0.15128-5.11601,1.75864-5.46332,4.58426
					c-0.34337,2.78632,1.69305,5.44687,4.57983,5.61487c2.88013,0.22006,5.33116-1.89325,5.47412-4.71884
					C190.75809,361.88641,188.70274,359.43021,186.02475,359.22781z" fill="#603f83" style=""></path>
				<path d="M158.5947,354.42941c-2.58023-0.73392-5.34641,0.86359-6.17513,3.56442c-0.8302,2.70477,0.7511,5.53824,3.53004,6.3252
					c2.78114,0.80466,5.60013-1.01196,6.22252-3.73636C162.81076,357.79538,161.17641,355.18002,158.5947,354.42941z" fill="#603f83" style=""></path>
				<path d="M132.40845,344.8866c-2.46872-1.05518-5.39405-0.13263-6.7005,2.41983c-1.27182,2.47977-0.2886,5.71213,2.36606,6.85477
					c2.63254,1.19174,5.66251,0.0452,6.76657-2.56033C135.94292,349.00021,134.85481,345.99091,132.40845,344.8866z" fill="#603f83" style=""></path>
				<path d="M188.548,330.10126c-2.19731-0.10904-4.22957,1.85199-4.57736,4.67758
					c-0.34265,2.78436,1.29466,5.39578,3.69362,5.52252c2.3916,0.17685,4.44548-1.95709,4.58842-4.77975
					C192.39539,332.69992,190.73721,330.26141,188.548,330.10126z" fill="#603f83" style=""></path>
				<path d="M166.14749,326.1861c-2.09955-0.6062-4.48035,1.11316-5.30907,3.81396
					c-0.82921,2.70184,0.36598,5.41641,2.66399,6.07663c2.29974,0.67499,4.72672-1.23203,5.34837-3.95349
					C169.48964,329.33591,168.24779,326.80801,166.14749,326.1861z" fill="#603f83" style=""></path>
				<path d="M144.78621,318.40094c-2.01875-0.84592-4.58794,0.26233-5.89413,2.81479
					c-1.27084,2.47781-0.645,5.52646,1.55943,6.45981c2.18307,0.9805,4.84215-0.32324,5.94522-2.92581
					C147.49907,322.1481,146.78259,319.29498,144.78621,318.40094z" fill="#603f83" style=""></path>
				<path d="M199.99831,374.47195c-2.93271-0.06973-5.38988,2.16147-5.49059,4.98706
					c-0.10046,2.82465,2.35648,5.18259,5.49059,5.25333V374.47195z" fill="#603f83" style=""></path>
				<path d="M200.00002,345.27075c-2.44318-0.07074-4.49754,2.17322-4.59775,4.99786
					c-0.10022,2.82559,1.95366,5.16882,4.59775,5.24054V345.27075z" fill="#603f83" style=""></path>
			</g>
			<g>
				<path d="M91.51868,354.82239c-2.59153-1.84116-6.07319-1.51105-7.77534,0.73785c-1.71,2.2587-0.86409,5.68362,1.89422,7.64172
					c2.73203,1.99344,6.30776,1.52283,7.84755-0.84888C95.02392,359.98337,94.08393,356.69891,91.51868,354.82239z" fill="#603f83" style=""></path>
				<path d="M48.91964,287.22592c0.73588,1.2782,0.90658,2.72638,0.60373,4.05075c-0.26822,1.30081-1.02743,2.48959-2.22875,3.23529
					c-1.20059,0.7457-2.62101,0.89996-3.95816,0.52466c-1.30056-0.39398-2.49992-1.32831-3.28-2.68317L48.91964,287.22592z" fill="#603f83" style=""></path>
				<path d="M74.19439,272.59976c0.6111,1.06302,0.66685,2.31668,0.27853,3.50156c-0.35246,1.16129-1.16498,2.26263-2.36556,3.00833
					c-1.20132,0.7457-2.5687,0.98544-3.82086,0.75061c-1.21484-0.25446-2.29875-0.99426-2.95406-2.13394L74.19439,272.59976z" fill="#603f83" style=""></path>
				<path d="M91.51868,354.82239c-2.59153-1.84116-6.07319-1.51105-7.77534,0.73785c-1.71,2.2587-0.86409,5.68362,1.89422,7.64172
					c2.73203,1.99344,6.30776,1.52283,7.84755-0.84888C95.02392,359.98337,94.08393,356.69891,91.51868,354.82239z" fill="#603f83" style=""></path>
				<path d="M66.28593,333.67847c-2.19707-2.29016-5.65023-2.59473-7.71884-0.67004
					c-2.07033,1.92664-1.86155,5.47437,0.47871,7.90897c2.43777,2.34613,5.98452,2.55148,7.91092,0.48239
					C68.88238,339.33167,68.57977,335.88217,66.28593,333.67847z" fill="#603f83" style=""></path>
				<path d="M45.13071,308.41501c-1.87604-2.56424-5.15703-3.51135-7.5302-1.97183
					c-2.36974,1.53662-2.84501,5.11871-0.85255,7.84903c1.95612,2.75781,5.38374,3.6008,7.63902,1.8952
					C46.64054,314.48282,46.96942,311.00583,45.13071,308.41501z" fill="#603f83" style=""></path>
				<path d="M106.62134,311.25143c-1.83994-1.60144-4.87752-1.19272-6.77247,0.9039
					c-1.89594,2.09857-1.80923,5.20221,0.18593,6.93335c1.99223,1.73898,5.15187,1.177,6.87219-1.02768
					C108.66637,315.80914,108.45759,312.85876,106.62134,311.25143z" fill="#603f83" style=""></path>
				<path d="M88.71616,293.34085c-1.60463-1.84018-4.55846-2.04749-6.8103-0.28983c-2.2064,1.72031-2.76469,4.87701-1.02988,6.87341
					c1.73285,1.9964,4.83502,2.08188,6.93409,0.18668C89.90766,298.21689,90.31784,295.18201,88.71616,293.34085z" fill="#603f83" style=""></path>
				<path d="M87.83463,333.60675c-2.21573-1.91583-5.54977-1.77338-7.44595,0.3252c-1.89496,2.09662-1.51253,5.4675,0.85844,7.51401
					c2.36729,2.05435,5.84108,1.73898,7.56042-0.46472C90.56813,338.72742,90.04619,335.53046,87.83463,333.60675z" fill="#603f83" style=""></path>
				<path d="M66.35348,312.11996c-1.92001-2.21552-5.12093-2.73621-7.374-0.97757c-2.20517,1.71933-2.51785,5.19043-0.46717,7.56213
					c2.04798,2.37268,5.41665,2.7529,7.51449,0.85867C68.12586,317.668,68.27054,314.3374,66.35348,312.11996z" fill="#603f83" style=""></path>
				<path d="M108.29376,330.91968c-2.18847-1.55823-5.35107-0.98837-7.05297,1.25952
					c-1.71098,2.2597-1.1834,5.44492,1.17161,7.12003c2.32995,1.71051,5.5704,1.02277,7.11143-1.35089
					C111.06214,335.57858,110.45669,332.51324,108.29376,330.91968z" fill="#603f83" style=""></path>
				<path d="M86.93763,313.03268c-1.85075-1.94434-5.03177-1.9581-7.10013-0.03439
					c-2.07131,1.92761-2.13394,5.18454-0.14025,7.27231c2.09096,1.99933,5.34714,1.93448,7.27451-0.13657
					C88.89693,318.06592,88.88441,314.88858,86.93763,313.03268z" fill="#603f83" style=""></path>
				<path d="M69.04055,291.65002c-1.59357-2.16147-4.65547-2.77356-7.02816-1.23499
					c-2.37121,1.53854-3.0646,4.78467-1.35435,7.11313c1.67365,2.35403,4.86106,2.87866,7.11781,1.17212
					C70.02892,296.99667,70.59705,293.83798,69.04055,291.65002z" fill="#603f83" style=""></path>
				<path d="M125.08801,306.98944c-1.78492-1.27524-4.63018-0.46274-6.33208,1.78516
					c-1.70927,2.25775-1.50049,5.20224,0.45096,6.59442c1.92713,1.42752,4.83232,0.52069,6.37137-1.85001
					C127.11682,311.14926,126.84811,308.30008,125.08801,306.98944z" fill="#603f83" style=""></path>
				<path d="M107.6129,292.3623c-1.50368-1.5975-4.41525-1.3175-6.48362,0.6062c-2.06934,1.92566-2.40339,4.89078-0.75675,6.63269
					c1.74365,1.65155,4.70877,1.31458,6.63443-0.75354C108.93213,296.77954,109.21238,293.87042,107.6129,292.3623z" fill="#603f83" style=""></path>
				<path d="M92.97815,274.86633c-1.31087-1.75864-4.15687-2.03372-6.52955-0.49518
					c-2.36876,1.53659-3.2805,4.44672-1.85296,6.37238c1.39119,1.9512,4.33789,2.1575,6.59243,0.45193
					C93.44114,279.49185,94.25218,276.65051,92.97815,274.86633z" fill="#603f83" style=""></path>
				<path d="M112.76772,351.0762c-1.27821-0.73587-2.72736-0.90683-4.05248-0.60519c-1.30227,0.26822-2.49181,1.02667-3.238,2.22824
					c-0.74546,1.19962-0.89823,2.62125-0.52293,3.95941c0.3952,1.30176,1.33052,2.5004,2.68561,3.28049L112.76772,351.0762z" fill="#603f83" style=""></path>
				<path d="M127.3929,325.80096c-1.0628-0.61111-2.31644-0.66611-3.50107-0.27902
					c-1.16153,0.35269-2.26387,1.16522-3.00933,2.36581c-0.74594,1.20157-0.98567,2.56818-0.75085,3.82086
					c0.25495,1.2153,0.995,2.29898,2.13419,2.95432L127.3929,325.80096z" fill="#603f83" style=""></path>
			</g>
			<g>
				<path d="M28.62434,279.88089c-1.31554-2.89731-4.48329-4.35828-7.08539-3.2569c-2.60431,1.10233-3.59366,4.50366-2.19142,7.5867
					c1.35189,3.1066,4.76183,4.44669,7.24283,3.17633C29.1421,286.08133,29.88903,282.80084,28.62434,279.88089z" fill="#603f83" style=""></path>
				<path d="M25.52781,199.99361c0.06951,2.93369-2.16096,5.38596-4.98731,5.48616
					c-2.82463,0.10022-5.18208-2.35205-5.25233-5.48616H25.52781z" fill="#603f83" style=""></path>
				<path d="M54.72953,199.99066c0.06951,2.44441-2.173,4.49779-4.99787,4.59801c-2.8261,0.1002-5.17029-1.95317-5.24005-4.59801
					H54.72953z" fill="#603f83" style=""></path>
				<path d="M28.62434,279.88089c-1.31554-2.89731-4.48329-4.35828-7.08539-3.2569c-2.60431,1.10233-3.59366,4.50366-2.19142,7.5867
					c1.35189,3.1066,4.76183,4.44669,7.24283,3.17633C29.1421,286.08133,29.88903,282.80084,28.62434,279.88089z" fill="#603f83" style=""></path>
				<path d="M17.34696,248.9014c-0.87416-3.05748-3.58384-5.0863-6.37088-4.44867c-2.72417,0.6219-4.44694,3.83461-3.52022,7.09055
					c0.91764,3.26674,3.86753,5.23071,6.57106,4.4015C16.72849,255.11655,18.2108,251.96869,17.34696,248.9014z" fill="#603f83" style=""></path>
				<path d="M11.67339,216.41377c-0.24513-3.16457-2.72294-5.61977-5.54486-5.4783c-2.82413,0.14148-4.9173,2.99165-4.65523,6.35762
					c0.21099,3.37187,2.91157,5.80743,5.6996,5.46455C9.99605,222.4128,11.86645,219.58423,11.67339,216.41377z" fill="#603f83" style=""></path>
				<path d="M63.44362,249.66478c-0.77296-2.30785-3.59096-3.47502-6.28025-2.60553
					c-2.69125,0.86949-4.18364,3.60373-3.34092,6.10609c0.94146,2.46701,3.87268,3.58997,6.48632,2.52989
					C62.93494,254.63022,64.31434,251.93921,63.44362,249.66478z" fill="#603f83" style=""></path>
				<path d="M56.96074,225.22955c-0.2159-1.20648-0.97978-2.20468-2.03987-2.8649c-1.01539-0.66612-2.34567-0.99034-3.74472-0.79091
					c-1.39979,0.20044-2.60185,0.897-3.41166,1.8844c-0.7656,0.97757-1.11953,2.243-0.88841,3.53693
					c0.47306,2.59964,3.06263,4.23645,5.86343,3.64107C55.46958,230.0555,57.39794,227.6268,56.96074,225.22955z" fill="#603f83" style=""></path>
				<path d="M36.00128,259.64871c-0.94294-2.77548-3.88669-4.32584-6.57794-3.45636
					c-2.68954,0.86853-4.05715,3.98788-3.04446,6.95694c1.11094,2.93466,4.19322,4.42999,6.80538,3.37088
					C35.81215,265.45419,37.04172,262.38983,36.00128,259.64871z" fill="#603f83" style=""></path>
				<path d="M28.19622,230.26476c-0.25864-1.45111-1.05813-2.67038-2.14328-3.49074c-1.0402-0.82529-2.38521-1.24973-3.785-1.04929
					c-1.39905,0.19943-2.58686,0.99524-3.37211,2.1418c-0.74104,1.13869-1.0596,2.62518-0.78574,4.16374
					c0.55829,3.08694,3.23113,5.11674,6.03021,4.52234C26.87209,235.97099,28.71865,233.1503,28.19622,230.26476z" fill="#603f83" style=""></path>
				<path d="M55.08518,267.52917c-1.10553-2.44833-4.11511-3.53888-6.71671-2.43753
					c-2.60553,1.10333-3.75233,4.1333-2.56034,6.76733c1.14238,2.65662,4.37006,3.64008,6.85254,2.36874
					C55.21192,272.923,56.14012,269.99915,55.08518,267.52917z" fill="#603f83" style=""></path>
				<path d="M45.55932,241.36479c-0.7457-2.57703-3.36425-4.21483-6.15081-3.57622c-2.72589,0.62192-4.53856,3.44261-3.7403,6.21811
					c0.78942,2.78532,3.62141,4.36417,6.32667,3.53496C44.69596,246.71341,46.29495,243.95068,45.55932,241.36479z" fill="#603f83" style=""></path>
				<path d="M40.76728,213.90649c-0.20288-2.67726-2.65908-4.73555-5.48051-4.59407
					c-2.8261,0.14148-4.93941,2.59473-4.71958,5.47339c0.16923,2.88455,2.82143,4.92221,5.61118,4.57933
					C39.00103,219.0193,40.91858,216.58965,40.76728,213.90649z" fill="#603f83" style=""></path>
				<path d="M81.57648,255.16272c-0.89503-1.99738-3.74963-2.71556-6.35123-1.61519
					c-2.60332,1.10234-3.90732,3.76192-2.92558,5.94597c0.93212,2.20566,3.97781,2.83148,6.45758,1.56116
					C81.30852,259.75092,82.42142,257.18271,81.57648,255.16272z" fill="#603f83" style=""></path>
				<path d="M73.80434,233.81937c-0.617-2.0966-3.14835-3.34042-5.93466-2.7028c-2.72318,0.62093-4.626,3.04962-3.95644,5.34468
					c0.66096,2.30392,3.37506,3.49664,6.07786,2.66841C72.69193,238.30144,74.41177,235.92285,73.80434,233.81937z" fill="#603f83" style=""></path>
				<path d="M69.89482,211.39626c-0.16039-2.18896-2.5994-3.85033-5.42083-3.70885c-2.82315,0.14146-4.9566,2.19682-4.77927,4.58719
					c0.12748,2.39822,2.73104,4.03603,5.51834,3.69412C68.03548,215.62288,70.00436,213.5921,69.89482,211.39626z" fill="#603f83" style=""></path>
				<path d="M48.92185,287.22983c-1.46561-2.54462-4.67685-3.53003-7.14286-2.22137
					c-2.52767,1.34305-3.28786,4.6265-1.72032,7.34894L48.92185,287.22983z" fill="#603f83" style=""></path>
				<path d="M74.19881,272.6076c-1.21508-2.11331-4.2335-2.73816-6.6978-1.4295c-2.52914,1.34503-3.48092,4.26593-2.16391,6.55609
					L74.19881,272.6076z" fill="#603f83" style=""></path>
			</g>
			<g>
				<path d="M11.67953,183.50468c0.19257-3.17145-1.66948-6.00197-4.49582-6.34879
					c-2.78459-0.34386-5.49328,2.09171-5.70378,5.46553c-0.26232,3.36794,1.8306,6.21516,4.65474,6.3586
					C8.95659,189.12248,11.4344,186.67023,11.67953,183.50468z" fill="#603f83" style=""></path>
				<path d="M48.92553,112.76427c-1.46512,2.54462-4.67512,3.52612-7.1409,2.21647
					c-2.52767-1.34403-3.28934-4.62256-1.72179-7.34501L48.92553,112.76427z" fill="#603f83" style=""></path>
				<path d="M74.20323,127.38551c-1.21532,2.1143-4.23399,2.73719-6.69804,1.42754c-2.52915-1.34403-3.48068-4.26297-2.16342-6.5551
					L74.20323,127.38551z" fill="#603f83" style=""></path>
				<path d="M11.67953,183.50468c0.19257-3.17145-1.66948-6.00197-4.49582-6.34879
					c-2.78459-0.34386-5.49328,2.09171-5.70378,5.46553c-0.26232,3.36794,1.8306,6.21516,4.65474,6.3586
					C8.95659,189.12248,11.4344,186.67023,11.67953,183.50468z" fill="#603f83" style=""></path>
				<path d="M17.36047,151.05046c0.86237-3.06041-0.61921-6.2122-3.32028-7.04141c-2.70329-0.82922-5.65416,1.13771-6.57008,4.39659
					c-0.93286,3.26183,0.7936,6.47256,3.51678,7.09447C13.77467,156.13872,16.48041,154.11285,17.36047,151.05046z" fill="#603f83" style=""></path>
				<path d="M28.65823,120.04541c1.26519-2.91895,0.52366-6.2014-2.02882-7.50809c-2.47879-1.27035-5.89364,0.06877-7.24627,3.1734
					c-1.40175,3.08204-0.41215,6.48239,2.19142,7.58572C24.17617,124.39877,27.34294,122.94077,28.65823,120.04541z" fill="#603f83" style=""></path>
				<path d="M56.96958,174.72131c0.4372-2.39626-1.49263-4.8279-4.21803-5.40854c-2.80498-0.59735-5.39283,1.0424-5.86613,3.64009
					c-0.23113,1.29294,0.12355,2.55836,0.88816,3.53593c0.80514,0.9864,2.01064,1.68396,3.4092,1.8844
					c1.40003,0.2014,2.72687-0.12379,3.74693-0.78894C55.99054,176.92502,56.75368,175.92682,56.96958,174.72131z" fill="#603f83" style=""></path>
				<path d="M63.45934,150.28807c0.87637-2.27444-0.50647-4.96742-3.13116-6.03242c-2.61437-1.06206-5.54142,0.06189-6.48853,2.5289
					c-0.84321,2.50336,0.64967,5.2366,3.34067,6.10709C59.86936,153.76112,62.68613,152.59787,63.45934,150.28807z" fill="#603f83" style=""></path>
				<path d="M28.20678,169.6763c0.52243-2.88358-1.32512-5.70918-4.05248-6.28984c-2.80301-0.59734-5.47462,1.43541-6.03291,4.52138
					c-0.27411,1.53757,0.04519,3.02406,0.785,4.16177c0.78058,1.14655,1.97159,1.94237,3.36966,2.14279
					c1.40077,0.2014,2.74234-0.22302,3.78721-1.04733C27.14939,172.34569,27.94815,171.12643,28.20678,169.6763z" fill="#603f83" style=""></path>
				<path d="M36.02068,140.29527c1.04609-2.74112-0.18692-5.80841-2.81308-6.8744c-2.6129-1.06107-5.69125,0.43623-6.80808,3.3699
					c-1.01367,2.97102,0.35492,6.08743,3.04421,6.95694C32.13449,144.61818,35.07726,143.07176,36.02068,140.29527z" fill="#603f83" style=""></path>
				<path d="M40.77244,186.02473c0.15056-2.68413-1.75888-5.11577-4.58474-5.46356
					c-2.78631-0.34288-5.44637,1.69379-5.61511,4.58031c-0.21983,2.87965,1.89373,5.33093,4.71958,5.47438
					C38.11361,190.75832,40.56956,188.70297,40.77244,186.02473z" fill="#603f83" style=""></path>
				<path d="M45.57086,158.59492c0.73416-2.57999-0.86409-5.34665-3.56468-6.17488c-2.70501-0.8302-5.53798,0.75061-6.32569,3.53004
					c-0.80391,2.78041,1.01244,5.60013,3.73735,6.22203C42.20489,162.81073,44.81976,161.17688,45.57086,158.59492z" fill="#603f83" style=""></path>
				<path d="M55.11343,132.40892c1.05567-2.46896,0.13263-5.39479-2.4196-6.7005c-2.48027-1.27231-5.71238-0.28885-6.85549,2.3658
					c-1.19125,2.63206-0.04446,5.66203,2.56083,6.76634C51.00004,135.9429,54.00863,134.85529,55.11343,132.40892z" fill="#603f83" style=""></path>
				<path d="M69.89899,188.54774c0.10857-2.19682-1.85246-4.22957-4.67807-4.57738c-2.78386-0.3419-5.39528,1.29491-5.52178,3.69412
					c-0.17734,2.39136,1.95661,4.44572,4.77976,4.58818C67.30034,192.39513,69.7386,190.73769,69.89899,188.54774z" fill="#603f83" style=""></path>
				<path d="M73.81393,166.14723c0.60594-2.09956-1.11315-4.4801-3.81374-5.30833c-2.70255-0.82921-5.41714,0.36548-6.07663,2.6635
					c-0.67496,2.29999,1.23154,4.7267,3.95349,5.34862C70.66434,169.48962,73.19177,168.24777,73.81393,166.14723z" fill="#603f83" style=""></path>
				<path d="M81.59958,144.78618c0.84542-2.01898-0.26257-4.58817-2.81505-5.89388
					c-2.47757-1.27133-5.52718-0.64549-6.46004,1.55919c-0.981,2.18306,0.32323,4.84264,2.92607,5.94498
					C77.85166,147.49881,80.70528,146.78258,81.59958,144.78618z" fill="#603f83" style=""></path>
				<path d="M25.52757,199.99852c0.07025-2.93269-2.16047-5.38988-4.98681-5.49106
					c-2.82463-0.10022-5.18184,2.35696-5.25258,5.49106H25.52757z" fill="#603f83" style=""></path>
				<path d="M54.72928,200.00049c0.07024-2.44342-2.17275-4.49779-4.99738-4.59799c-2.82634-0.10022-5.1698,1.95415-5.24054,4.59799
					H54.72928z" fill="#603f83" style=""></path>
			</g>
			<g>
				<path d="M45.17787,91.51915c1.84067-2.59177,1.51081-6.07368-0.73809-7.77534c-2.25847-1.71049-5.68388-0.86458-7.64196,1.89422
					c-1.99296,2.73129-1.52259,6.30752,0.84886,7.84706C40.01667,95.02365,43.30158,94.0844,45.17787,91.51915z" fill="#603f83" style=""></path>
				<path d="M112.77435,48.91987c-1.27845,0.73587-2.72638,0.90683-4.051,0.60324c-1.30105-0.26822-2.4896-1.02669-3.23555-2.22826
					c-0.7457-1.20059-0.89922-2.62125-0.52489-3.95841c0.39471-1.3008,1.3288-2.49942,2.68388-3.27951L112.77435,48.91987z" fill="#603f83" style=""></path>
				<path d="M127.40051,74.19412c-1.06329,0.61111-2.31669,0.66711-3.50156,0.27903
					c-1.16129-0.35271-2.26338-1.16522-3.00884-2.36581c-0.74594-1.20157-0.98567-2.5682-0.75085-3.82085
					c0.2552-1.21435,0.995-2.299,2.13493-2.95432L127.40051,74.19412z" fill="#603f83" style=""></path>
				<path d="M45.17787,91.51915c1.84067-2.59177,1.51081-6.07368-0.73809-7.77534c-2.25847-1.71049-5.68388-0.86458-7.64196,1.89422
					c-1.99296,2.73129-1.52259,6.30752,0.84886,7.84706C40.01667,95.02365,43.30158,94.0844,45.17787,91.51915z" fill="#603f83" style=""></path>
				<path d="M66.32154,66.28616c2.29041-2.19682,2.59448-5.65023,0.66981-7.71933c-1.92615-2.07008-5.47388-1.86081-7.90821,0.47945
					c-2.3469,2.43753-2.55248,5.98428-0.48289,7.91092C60.66861,68.88284,64.11809,68.58025,66.32154,66.28616z" fill="#603f83" style=""></path>
				<path d="M91.58524,45.13045c2.56353-1.87555,3.51113-5.15703,1.97183-7.52972c-1.53709-2.36974-5.11896-2.84526-7.84951-0.85279
					c-2.75758,1.95612-3.60078,5.38398-1.89496,7.63877C85.51696,46.64052,88.9942,46.96965,91.58524,45.13045z" fill="#603f83" style=""></path>
				<path d="M88.74907,106.62181c1.60046-1.84019,1.19248-4.87801-0.90437-6.77222
					c-2.09857-1.89619-5.20197-1.80973-6.93359,0.18568c-1.73825,1.99149-1.17725,5.15114,1.02767,6.87146
					C84.19086,108.66634,87.141,108.45806,88.74907,106.62181z" fill="#603f83" style=""></path>
				<path d="M106.65916,88.71614c1.84042-1.60439,2.04749-4.5587,0.28983-6.81054c-1.72057-2.20567-4.87727-2.76469-6.87366-1.02964
					c-1.99639,1.73309-2.08163,4.83478-0.18618,6.93433C101.78312,89.90788,104.818,90.31758,106.65916,88.71614z" fill="#603f83" style=""></path>
				<path d="M66.39278,87.83485c1.91583-2.21548,1.77361-5.55002-0.32471-7.44621c-2.09685-1.8952-5.46724-1.51203-7.51424,0.85869
					c-2.05412,2.36679-1.73874,5.84084,0.46495,7.56017C61.27209,90.56811,64.46933,90.04642,66.39278,87.83485z" fill="#603f83" style=""></path>
				<path d="M87.88007,66.35395c2.21598-1.92075,2.73621-5.12166,0.97733-7.37449c-1.71909-2.20469-5.19019-2.51809-7.56214-0.46668
					c-2.37244,2.04749-2.75315,5.4164-0.85893,7.51399C82.33176,68.12634,85.66286,68.27076,87.88007,66.35395z" fill="#603f83" style=""></path>
				<path d="M69.08059,108.29399c1.55821-2.18896,0.98837-5.35156-1.25978-7.05322c-2.26019-1.71049-5.44465-1.18291-7.12027,1.1721
					c-1.71049,2.32945-1.02202,5.57065,1.35091,7.11118C64.42094,111.06261,67.48676,110.45642,69.08059,108.29399z" fill="#603f83" style=""></path>
				<path d="M86.96759,86.93785c1.94408-1.85099,1.95808-5.03225,0.0339-7.10037c-1.92738-2.07106-5.1843-2.13394-7.27231-0.1405
					c-1.99959,2.0917-1.93425,5.34763,0.13657,7.27525C81.93386,88.89691,85.11144,88.88414,86.96759,86.93785z" fill="#603f83" style=""></path>
				<path d="M108.34976,69.04102c2.16145-1.59357,2.77428-4.65596,1.23522-7.02865
					c-1.53807-2.37072-4.78418-3.06435-7.11266-1.35386c-2.35451,1.67316-2.87965,4.86032-1.17283,7.11708
					C103.00361,70.0294,106.16178,70.59727,108.34976,69.04102z" fill="#603f83" style=""></path>
				<path d="M93.01106,125.08847c1.27525-1.78516,0.46226-4.63042-1.7859-6.33207c-2.25798-1.70951-5.20148-1.50123-6.59439,0.45096
					c-1.4273,1.92664-0.52071,4.83183,1.85001,6.37137C88.85027,127.11729,91.70019,126.84809,93.01106,125.08847z" fill="#603f83" style=""></path>
				<path d="M107.63747,107.61313c1.59726-1.50417,1.31824-4.41526-0.60619-6.48338
					c-1.92541-2.07008-4.89102-2.40412-6.63222-0.75749c-1.65155,1.7439-1.31505,4.70902,0.75356,6.63468
					C103.22073,108.9326,106.12911,109.21261,107.63747,107.61313z" fill="#603f83" style=""></path>
				<path d="M125.13393,92.97813c1.75888-1.31063,2.03397-4.15687,0.49492-6.52956c-1.53659-2.36875-4.44669-3.28049-6.3726-1.85295
					c-1.95096,1.39119-2.15728,4.33764-0.45219,6.59243C120.50842,93.44088,123.3495,94.2524,125.13393,92.97813z" fill="#603f83" style=""></path>
				<path d="M48.92332,112.7682c0.73612-1.27821,0.90683-2.72736,0.60521-4.05273c-0.26748-1.30276-1.0262-2.49156-2.22728-3.23825
					c-1.20059-0.7457-2.62174-0.89798-3.95938-0.52267c-1.30178,0.39496-2.50114,1.33028-3.28148,2.68511L48.92332,112.7682z" fill="#603f83" style=""></path>
				<path d="M74.19881,127.39337c0.61111-1.06304,0.66612-2.31669,0.27879-3.50156
					c-0.35247-1.16129-1.16473-2.26363-2.36532-3.00933c-1.20132-0.7457-2.5687-0.98543-3.82111-0.75062
					c-1.21557,0.25446-2.29875,0.99525-2.95407,2.13395L74.19881,127.39337z" fill="#603f83" style=""></path>
			</g>
			<g>
				<path d="M120.11936,28.62481c2.89733-1.31554,4.35778-4.48403,3.25642-7.08563c-1.1021-2.60455-4.50319-3.59391-7.58694-2.19191
					c-3.1061,1.35189-4.44596,4.76207-3.17561,7.24283C113.91821,29.14258,117.19919,29.88926,120.11936,28.62481z" fill="#603f83" style=""></path>
				<path d="M200.00592,25.52804c-2.93295,0.06976-5.38547-2.16145-5.48592-4.98706
					c-0.10022-2.82463,2.35205-5.18257,5.48616-5.25233L200.00592,25.52804z" fill="#603f83" style=""></path>
				<path d="M200.00887,54.72926c-2.44441,0.06976-4.4973-2.17226-4.59752-4.99787c-0.09996-2.82561,1.95293-5.1698,4.59825-5.23956
					L200.00887,54.72926z" fill="#603f83" style=""></path>
				<path d="M120.11936,28.62481c2.89733-1.31554,4.35778-4.48403,3.25642-7.08563c-1.1021-2.60455-4.50319-3.59391-7.58694-2.19191
					c-3.1061,1.35189-4.44596,4.76207-3.17561,7.24283C113.91821,29.14258,117.19919,29.88926,120.11936,28.62481z" fill="#603f83" style=""></path>
				<path d="M151.09863,17.34694c3.05722-0.8744,5.08604-3.58408,4.44841-6.37039c-0.62166-2.72441-3.83461-4.44768-7.09055-3.52022
					c-3.26601,0.91763-5.23022,3.86704-4.40126,6.57082C144.88347,16.72896,148.03181,18.21054,151.09863,17.34694z" fill="#603f83" style=""></path>
				<path d="M183.58575,11.67313c3.16457-0.24464,5.62051-2.72245,5.47903-5.54413c-0.14172-2.82463-2.99165-4.9173-6.35811-4.65597
					c-3.37187,0.21123-5.80743,2.91207-5.46455,5.70034C177.58748,9.99604,180.41579,11.86667,183.58575,11.67313z" fill="#603f83" style=""></path>
				<path d="M150.33499,63.44385c2.30833-0.77321,3.47504-3.59096,2.60603-6.28c-0.86925-2.69199-3.60423-4.18438-6.10611-3.34141
					c-2.46774,0.94122-3.59047,3.87293-2.53012,6.48632C145.36955,62.93492,148.06032,64.31432,150.33499,63.44385z" fill="#603f83" style=""></path>
				<path d="M174.77022,56.96047c1.20673-0.21516,2.20468-0.97953,2.86516-2.03963c0.66562-1.0149,0.99083-2.34518,0.79089-3.74422
					c-0.20018-1.40003-0.897-2.60258-1.88391-3.41215c-0.97806-0.76535-2.24324-1.11905-3.53741-0.88816
					c-2.59914,0.47257-4.23669,3.06239-3.64131,5.86343C169.94453,55.47005,172.37297,57.39767,174.77022,56.96047z" fill="#603f83" style=""></path>
				<path d="M140.35155,36.00126c2.77525-0.94318,4.32561-3.88668,3.45636-6.57769c-0.869-2.69003-3.98813-4.05764-6.95694-3.0447
					c-2.93442,1.11118-4.43073,4.19322-3.37112,6.80563C134.54533,35.81262,137.61018,37.0417,140.35155,36.00126z" fill="#603f83" style=""></path>
				<path d="M169.7355,28.19645c1.45088-0.25839,2.67014-1.05813,3.49075-2.14377c0.82552-1.03946,1.24947-2.38448,1.04929-3.78451
					c-0.19994-1.39905-0.99574-2.58686-2.1423-3.37187c-1.13844-0.74177-2.62492-1.06009-4.16325-0.78598
					c-3.08743,0.55805-5.11723,3.23137-4.52258,6.03045C164.02878,26.87207,166.84996,28.71913,169.7355,28.19645z" fill="#603f83" style=""></path>
				<path d="M132.47133,55.08492c2.4476-1.10529,3.5379-4.11462,2.43678-6.71622c-1.10283-2.60553-4.13329-3.75209-6.7673-2.56034
					c-2.65638,1.14262-3.6396,4.37006-2.36826,6.85279C127.07703,55.21166,130.00089,56.1401,132.47133,55.08492z" fill="#603f83" style=""></path>
				<path d="M158.63522,45.55979c2.57729-0.7457,4.21434-3.36499,3.57671-6.1513c-0.62215-2.7254-3.44284-4.53807-6.21884-3.7403
					c-2.78484,0.78991-4.36368,3.62141-3.53447,6.32716C153.28661,44.69619,156.04958,46.29469,158.63522,45.55979z" fill="#603f83" style=""></path>
				<path d="M186.09352,40.76726c2.67677-0.20239,4.73555-2.65859,4.59407-5.48027c-0.14148-2.82659-2.59448-4.9399-5.47313-4.71983
					c-2.88506,0.16899-4.92198,2.82168-4.57959,5.61094C180.98071,39.00076,183.41039,40.91856,186.09352,40.76726z" fill="#603f83" style=""></path>
				<path d="M144.83754,81.57647c1.99738-0.89504,2.71556-3.74914,1.6147-6.35074c-1.10185-2.60357-3.76141-3.90732-5.94522-2.92583
					c-2.20616,0.93237-2.83249,3.97806-1.56189,6.45783C140.24936,81.30825,142.81732,82.4214,144.83754,81.57647z" fill="#603f83" style=""></path>
				<path d="M166.18065,73.80408c2.09686-0.617,3.34068-3.14787,2.7028-5.93417c-0.62141-2.72343-3.04936-4.62649-5.34517-3.95644
					c-2.30293,0.66121-3.49615,3.37481-2.66768,6.07761C161.69859,72.69192,164.07668,74.41224,166.18065,73.80408z" fill="#603f83" style=""></path>
				<path d="M188.60425,69.8948c2.18823-0.16014,3.84935-2.59964,3.70813-5.42033c-0.14172-2.82364-2.19682-4.9566-4.58745-4.77975
					c-2.39774,0.12772-4.03552,2.73129-3.69362,5.51858C184.37738,68.03595,186.40817,70.00484,188.60425,69.8948z" fill="#603f83" style=""></path>
				<path d="M112.77042,48.92183c2.54462-1.46586,3.53029-4.6766,2.22089-7.14262c-1.34329-2.52792-4.62624-3.28836-7.34845-1.72032
					L112.77042,48.92183z" fill="#603f83" style=""></path>
				<path d="M127.3929,74.19904c2.11331-1.21532,2.73767-4.2335,1.42853-6.69756c-1.34404-2.52988-4.26495-3.48092-6.5556-2.1644
					L127.3929,74.19904z" fill="#603f83" style=""></path>
			</g>
			<g>
				<path d="M216.49535,11.68c3.17168,0.19257,6.0022-1.67021,6.34901-4.49582c0.34363-2.78533-2.09193-5.49402-5.46553-5.70427
					c-3.36794-0.26232-6.21565,1.83036-6.35835,4.65498C210.87753,8.95657,213.3293,11.43438,216.49535,11.68z" fill="#603f83" style=""></path>
				<path d="M287.23599,48.92576c-2.54486-1.46487-3.52585-4.67562-2.21646-7.14066
					c1.34354-2.52792,4.62207-3.28934,7.34451-1.72228L287.23599,48.92576z" fill="#603f83" style=""></path>
				<path d="M272.61475,74.20296c-2.11453-1.21532-2.73718-4.2335-1.42801-6.69756c1.34427-2.5289,4.2637-3.48092,6.55557-2.16341
					L272.61475,74.20296z" fill="#603f83" style=""></path>
				<path d="M216.49535,11.68c3.17168,0.19257,6.0022-1.67021,6.34901-4.49582c0.34363-2.78533-2.09193-5.49402-5.46553-5.70427
					c-3.36794-0.26232-6.21565,1.83036-6.35835,4.65498C210.87753,8.95657,213.3293,11.43438,216.49535,11.68z" fill="#603f83" style=""></path>
				<path d="M248.94955,17.36069c3.06042,0.86262,6.21245-0.61896,7.04143-3.32078c0.82945-2.7028-1.13747-5.65416-4.39659-6.56983
					c-3.26184-0.93237-6.47258,0.79384-7.09473,3.51727C243.86105,13.77465,245.88667,16.48039,248.94955,17.36069z" fill="#603f83" style=""></path>
				<path d="M279.95486,28.65821c2.91818,1.26543,6.2009,0.52366,7.50784-2.02882c1.27084-2.47879-0.06927-5.89389-3.1734-7.24578
					c-3.08203-1.402-6.48215-0.41264-7.58548,2.19093C275.60126,24.17615,277.05923,27.34267,279.95486,28.65821z" fill="#603f83" style=""></path>
				<path d="M225.27895,56.96931c2.39577,0.4372,4.8279-1.49239,5.40878-4.21778c0.59735-2.80498-1.04265-5.39283-3.64008-5.86638
					c-1.29369-0.23088-2.55862,0.12379-3.53668,0.88816c-0.9864,0.80563-1.6842,2.01113-1.88438,3.4092
					c-0.20068,1.40003,0.12428,2.72736,0.78893,3.74717C223.07524,55.99076,224.07271,56.75415,225.27895,56.96931z" fill="#603f83" style=""></path>
				<path d="M249.71245,63.45956c2.27345,0.87637,4.96667-0.50696,6.03217-3.13116c1.06157-2.61438-0.06213-5.54118-2.5289-6.48829
					c-2.50336-0.84395-5.2366,0.64942-6.10684,3.34043C246.23914,59.86959,247.40263,62.68636,249.71245,63.45956z" fill="#603f83" style=""></path>
				<path d="M230.32373,28.20726c2.88332,0.5217,5.70868-1.32536,6.29031-4.05272c0.5966-2.80301-1.43614-5.47437-4.52136-6.0334
					c-1.53758-0.27411-3.02408,0.04519-4.16252,0.785c-1.14606,0.78107-1.94261,1.97183-2.14279,3.3699
					c-0.20067,1.40101,0.22302,2.7421,1.04733,3.78745C227.65457,27.14913,228.87334,27.94788,230.32373,28.20726z" fill="#603f83" style=""></path>
				<path d="M259.70523,36.02091c2.74063,1.04634,5.80792-0.18667,6.8739-2.81284c1.0611-2.61339-0.43622-5.6915-3.3699-6.80858
					c-2.97076-1.01392-6.08743,0.35468-6.95715,3.0447C255.38159,32.13422,256.92825,35.07773,259.70523,36.02091z" fill="#603f83" style=""></path>
				<path d="M213.97504,40.77217c2.68488,0.1513,5.11626-1.75864,5.46356-4.58425c0.34338-2.78631-1.6933-5.44686-4.57982-5.61486
					c-2.88014-0.22008-5.33118,1.89324-5.47412,4.71884C209.24194,38.11359,211.29729,40.56978,213.97504,40.77217z" fill="#603f83" style=""></path>
				<path d="M241.40535,45.5706c2.58023,0.73489,5.34639-0.8636,6.17513-3.56443c0.82994-2.70476-0.75136-5.53823-3.5303-6.3252
					c-2.7809-0.80465-5.59987,1.01195-6.22252,3.73735C237.18904,42.20463,238.82364,44.81998,241.40535,45.5706z" fill="#603f83" style=""></path>
				<path d="M267.59134,55.11341c2.46896,1.05616,5.39429,0.13263,6.7005-2.41985c1.27182-2.47977,0.28885-5.71213-2.36581-6.85475
					c-2.63278-1.19175-5.66275-0.04519-6.76682,2.56034C264.05688,51.00076,265.14496,54.00911,267.59134,55.11341z" fill="#603f83" style=""></path>
				<path d="M211.45203,69.89873c2.19733,0.10905,4.22932-1.85197,4.57713-4.67758c0.34264-2.78434-1.29442-5.39479-3.69363-5.52153
					c-2.39136-0.17783-4.44547,1.95612-4.58818,4.77976C207.60464,67.30007,209.26257,69.73859,211.45203,69.89873z" fill="#603f83" style=""></path>
				<path d="M233.85254,73.8139c2.09932,0.60619,4.48035-1.11314,5.30907-3.81398c0.82921-2.70181-0.36597-5.4164-2.66423-6.07663
					c-2.2995-0.67496-4.72646,1.23203-5.34813,3.95349C230.51039,70.66408,231.75224,73.19199,233.85254,73.8139z" fill="#603f83" style=""></path>
				<path d="M255.21384,81.60004c2.01874,0.84493,4.58792-0.2633,5.89413-2.81578c1.27084-2.47683,0.64499-5.52644-1.55969-6.45979
					c-2.18283-0.98051-4.84215,0.32323-5.94522,2.92582C252.50096,77.85189,253.21719,80.70501,255.21384,81.60004z" fill="#603f83" style=""></path>
				<path d="M200.0015,25.52804c2.93294,0.06976,5.38988-2.16047,5.49059-4.98706c0.10069-2.82463-2.35623-5.18159-5.49034-5.25233
					L200.0015,25.52804z" fill="#603f83" style=""></path>
				<path d="M200.00002,54.72926c2.44293,0.07074,4.4973-2.17226,4.59776-4.99689c0.1002-2.82659-1.9539-5.1698-4.59776-5.24054
					V54.72926z" fill="#603f83" style=""></path>
			</g>
			<g>
				<path d="M308.48111,45.1776c2.5918,1.84117,6.07318,1.51105,7.77557-0.73784c1.71002-2.25872,0.86386-5.68364-1.8942-7.64172
					c-2.7323-1.99345-6.30777-1.52284-7.84781,0.84886C304.97614,40.01665,305.91611,43.30206,308.48111,45.1776z" fill="#603f83" style=""></path>
				<path d="M351.08038,112.77409c-0.73587-1.2782-0.9068-2.72637-0.60373-4.05076c0.26797-1.3008,1.02744-2.4896,2.22876-3.2353
					c1.20035-0.7457,2.621-0.89897,3.95816-0.52464c1.30057,0.39397,2.49966,1.32831,3.28,2.68315L351.08038,112.77409z" fill="#603f83" style=""></path>
				<path d="M325.80539,127.40025c-0.61108-1.06304-0.66684-2.31668-0.27853-3.50156
					c0.35272-1.16129,1.16522-2.26264,2.36581-3.00835c1.20132-0.7457,2.56845-0.98543,3.82086-0.75061
					c1.21484,0.25446,2.29852,0.99426,2.95407,2.13493L325.80539,127.40025z" fill="#603f83" style=""></path>
				<path d="M308.48111,45.1776c2.5918,1.84117,6.07318,1.51105,7.77557-0.73784c1.71002-2.25872,0.86386-5.68364-1.8942-7.64172
					c-2.7323-1.99345-6.30777-1.52284-7.84781,0.84886C304.97614,40.01665,305.91611,43.30206,308.48111,45.1776z" fill="#603f83" style=""></path>
				<path d="M333.71387,66.32153c2.19705,2.29015,5.65024,2.59473,7.71884,0.67005c2.07031-1.92664,1.86154-5.47437-0.47849-7.90797
					c-2.43802-2.34714-5.98474-2.55248-7.91089-0.48338C331.11768,60.66834,331.42001,64.11783,333.71387,66.32153z" fill="#603f83" style=""></path>
				<path d="M354.86932,91.58498c1.87604,2.56427,5.15704,3.51138,7.53021,1.97183c2.36972-1.53659,2.84476-5.11871,0.85229-7.84902
					c-1.95612-2.75781-5.38373-3.60078-7.63901-1.8952C353.35925,85.51719,353.03036,88.99418,354.86932,91.58498z" fill="#603f83" style=""></path>
				<path d="M293.37845,88.74954c1.84018,1.60046,4.87753,1.19175,6.77249-0.90486c1.89618-2.09857,1.8092-5.20222-0.18594-6.93335
					c-1.99197-1.73801-5.15164-1.17701-6.87219,1.02767C291.33344,84.19084,291.54221,87.14123,293.37845,88.74954z" fill="#603f83" style=""></path>
				<path d="M311.28387,106.65914c1.6044,1.84019,4.55847,2.04749,6.81006,0.28983c2.20639-1.72032,2.76492-4.87702,1.03012-6.87342
					c-1.73285-1.99639-4.83502-2.08187-6.93408-0.18667C310.09213,101.7831,309.68195,104.81798,311.28387,106.65914z" fill="#603f83" style=""></path>
				<path d="M312.16541,66.39325c2.21548,1.91583,5.54977,1.77337,7.44595-0.3252c1.89496-2.09661,1.5123-5.46749-0.85843-7.514
					c-2.36752-2.05436-5.84134-1.73899-7.56067,0.46471C309.43192,61.27257,309.95386,64.46955,312.16541,66.39325z" fill="#603f83" style=""></path>
				<path d="M333.64633,87.88005c1.92023,2.21647,5.12091,2.7362,7.37396,0.97756c2.2052-1.71934,2.51785-5.19043,0.46744-7.56213
					c-2.04822-2.37269-5.4169-2.75291-7.5145-0.85869C331.87418,82.33199,331.72925,85.6626,333.64633,87.88005z" fill="#603f83" style=""></path>
				<path d="M291.70627,69.08032c2.18848,1.55821,5.35083,0.98837,7.05298-1.25954c1.71072-2.2597,1.18314-5.44489-1.17184-7.12002
					c-2.32996-1.71049-5.5704-1.02178-7.11118,1.35091C288.93765,64.42141,289.54337,67.48675,291.70627,69.08032z" fill="#603f83" style=""></path>
				<path d="M313.06241,86.96733c1.85049,1.94432,5.03152,1.95808,7.09988,0.03439c2.07156-1.92763,2.13394-5.18454,0.1405-7.27231
					c-2.09097-1.99934-5.34714-1.9345-7.27478,0.13657C311.10284,81.93409,311.11563,85.11143,313.06241,86.96733z" fill="#603f83" style=""></path>
				<path d="M330.95923,108.34999c1.59384,2.16145,4.65573,2.77451,7.02841,1.23497
					c2.37122-1.53757,3.06461-4.78368,1.35434-7.11216c-1.67389-2.355-4.86105-2.87965-7.1178-1.17308
					C329.9711,103.00334,329.40274,106.16201,330.95923,108.34999z" fill="#603f83" style=""></path>
				<path d="M274.9118,93.01154c1.78491,1.27525,4.63016,0.46176,6.33231-1.78615c1.70926-2.25774,1.50049-5.20124-0.4512-6.59439
					c-1.92688-1.42754-4.83206-0.52071-6.37137,1.85001C272.88297,88.85074,273.15167,91.69993,274.9118,93.01154z" fill="#603f83" style=""></path>
				<path d="M292.38715,107.6377c1.50342,1.5975,4.41501,1.31848,6.48337-0.60619c2.06958-1.92566,2.40363-4.89078,0.75674-6.63271
					c-1.74365-1.65154-4.70877-1.31455-6.63443,0.75356C291.06766,103.22047,290.78766,106.12959,292.38715,107.6377z" fill="#603f83" style=""></path>
				<path d="M307.02164,125.13367c1.31113,1.75962,4.15686,2.03471,6.52957,0.49517c2.36899-1.5366,3.28073-4.4467,1.85318-6.37235
					c-1.39117-1.9512-4.33789-2.15752-6.59244-0.45194C306.5589,120.50816,305.74786,123.34949,307.02164,125.13367z" fill="#603f83" style=""></path>
				<path d="M287.23206,48.9238c1.27847,0.73587,2.72763,0.90683,4.05273,0.60521c1.30203-0.26822,2.49182-1.02669,3.23776-2.22728
					c0.7457-1.20059,0.89847-2.62223,0.52292-3.95938c-0.3952-1.30178-1.33051-2.50139-2.68561-3.28148L287.23206,48.9238z" fill="#603f83" style=""></path>
				<path d="M272.60715,74.19904c1.06253,0.61111,2.31619,0.66612,3.50107,0.27902c1.16129-0.35271,2.26385-1.16521,3.00931-2.36581
					c0.74597-1.20157,0.98544-2.5682,0.75061-3.82085c-0.25494-1.21533-0.995-2.299-2.13419-2.95432L272.60715,74.19904z" fill="#603f83" style=""></path>
			</g>
			<g>
				<path d="M371.37546,120.11909c1.3158,2.89733,4.48355,4.35828,7.08563,3.25692c2.60406-1.10234,3.59341-4.50368,2.19141-7.5867
					c-1.35211-3.1066-4.76205-4.44669-7.24307-3.17635C370.85794,113.91868,370.11075,117.19917,371.37546,120.11909z" fill="#603f83" style=""></path>
				<path d="M374.47223,200.0054c-0.06976-2.93172,2.16095-5.38496,4.9873-5.48517c2.82437-0.1012,5.18182,2.35303,5.25232,5.48517
					H374.47223z" fill="#603f83" style=""></path>
				<path d="M345.27051,200.01031c-0.06976-2.44736,2.173-4.49779,4.99786-4.59898c2.82611-0.09923,5.1698,1.95219,5.24005,4.59898
					H345.27051z" fill="#603f83" style=""></path>
				<path d="M371.37546,120.11909c1.3158,2.89733,4.48355,4.35828,7.08563,3.25692c2.60406-1.10234,3.59341-4.50368,2.19141-7.5867
					c-1.35211-3.1066-4.76205-4.44669-7.24307-3.17635C370.85794,113.91868,370.11075,117.19917,371.37546,120.11909z" fill="#603f83" style=""></path>
				<path d="M382.65308,151.0986c0.87418,3.05748,3.58383,5.0863,6.37088,4.44867c2.72418-0.6219,4.44696-3.83461,3.52023-7.09055
					c-0.91788-3.26576-3.86777-5.23071-6.57132-4.4015C383.27155,144.88345,381.789,148.03229,382.65308,151.0986z" fill="#603f83" style=""></path>
				<path d="M388.32666,183.58623c0.24487,3.16457,2.72269,5.61977,5.54462,5.4783c2.82437-0.14148,4.9173-2.99165,4.65546-6.35762
					c-0.21097-3.37187-2.91156-5.80743-5.69983-5.46455C390.00372,177.5872,388.13358,180.41577,388.32666,183.58623z" fill="#603f83" style=""></path>
				<path d="M336.55643,150.33522c0.77271,2.30785,3.5907,3.47502,6.28024,2.60652c2.69125-0.86949,4.18338-3.60472,3.34067-6.10709
					c-0.94147-2.46701-3.87244-3.58998-6.48633-2.52989C337.06485,145.36978,335.6857,148.06079,336.55643,150.33522z" fill="#603f83" style=""></path>
				<path d="M343.03931,174.77045c0.21564,1.20648,0.97952,2.20468,2.03961,2.8649c1.01541,0.66612,2.34567,0.99133,3.74472,0.79091
					c1.39978-0.20044,2.60211-0.897,3.41165-1.88342c0.76584-0.97855,1.11978-2.24397,0.88867-3.5379
					c-0.47308-2.59865-3.0629-4.23645-5.86343-3.64107C344.53046,169.9445,342.60211,172.3732,343.03931,174.77045z" fill="#603f83" style=""></path>
				<path d="M363.9985,140.35127c0.94293,2.77551,3.88693,4.32585,6.57794,3.45636c2.68954-0.8685,4.0574-3.98787,3.04471-6.95692
					c-1.11118-2.93369-4.19345-4.42999-6.80563-3.37088C364.1879,134.54581,362.95831,137.61017,363.9985,140.35127z" fill="#603f83" style=""></path>
				<path d="M371.80356,169.73524c0.25864,1.45111,1.05838,2.67038,2.14328,3.49074
					c1.04047,0.82626,2.38547,1.24973,3.78525,1.04929c1.3988-0.19943,2.58688-0.99524,3.37186-2.1418
					c0.74106-1.13869,1.05963-2.62518,0.78574-4.16374c-0.55804-3.08694-3.23087-5.11674-6.02994-4.52234
					C373.12796,164.02901,371.28137,166.85069,371.80356,169.73524z" fill="#603f83" style=""></path>
				<path d="M344.91486,132.4718c1.10529,2.44736,4.11487,3.5379,6.71646,2.43654c2.60577-1.10332,3.75235-4.13329,2.56033-6.7673
					c-1.14212-2.65662-4.37006-3.64008-6.85254-2.36876C344.78787,127.07701,343.85992,130.00087,344.91486,132.4718z" fill="#603f83" style=""></path>
				<path d="M354.44046,158.63521c0.74573,2.57703,3.3645,4.21483,6.15082,3.57719c2.72589-0.62289,4.53882-3.4426,3.7403-6.21909
					c-0.78943-2.78532-3.6214-4.36417-6.32666-3.53496C355.30408,153.28659,353.70483,156.04932,354.44046,158.63521z" fill="#603f83" style=""></path>
				<path d="M359.23276,186.09351c0.20264,2.67726,2.65909,4.73555,5.4805,4.59407c2.82587-0.14148,4.93918-2.59473,4.7196-5.47339
					c-0.16925-2.88455-2.82144-4.92123-5.61145-4.57933C360.99902,180.9807,359.08121,183.41035,359.23276,186.09351z" fill="#603f83" style=""></path>
				<path d="M318.42331,144.83728c0.89502,1.99738,3.74988,2.71655,6.35147,1.61519
					c2.60309-1.10234,3.90707-3.76192,2.92557-5.94498c-0.93237-2.20665-3.97781-2.83249-6.45758-1.56215
					C318.69128,140.2491,317.57837,142.81729,318.42331,144.83728z" fill="#603f83" style=""></path>
				<path d="M326.19543,166.18063c0.61725,2.0966,3.14838,3.34042,5.93491,2.7028c2.72321-0.62093,4.62601-3.04962,3.95621-5.34468
					c-0.66095-2.30293-3.37506-3.49664-6.07761-2.66841C327.30786,161.69856,325.58829,164.07715,326.19543,166.18063z" fill="#603f83" style=""></path>
				<path d="M330.10522,188.60472c0.16037,2.18799,2.59915,3.84935,5.42056,3.70787
					c2.82339-0.14146,4.95685-2.19682,4.77951-4.58719c-0.12747-2.39822-2.73126-4.03603-5.51831-3.69412
					C331.96432,184.37712,329.99542,186.4079,330.10522,188.60472z" fill="#603f83" style=""></path>
				<path d="M351.07819,112.77016c1.46536,2.54462,4.67661,3.53103,7.14261,2.22139c2.52768-1.34305,3.28812-4.6265,1.72034-7.34895
					L351.07819,112.77016z" fill="#603f83" style=""></path>
				<path d="M325.80099,127.39337c1.21506,2.11331,4.23373,2.73718,6.69778,1.42853
					c2.52914-1.34404,3.48117-4.26495,2.16391-6.55608L325.80099,127.39337z" fill="#603f83" style=""></path>
			</g>
		</g>
		<circle cx="200" cy="200" r="133.67848" fill="#603f83" style=""></circle>
	</g>
</g>


<desc>Created with Snap</desc><defs></defs></g><g><g transform="matrix(1,0,0,-1,0,0)"><path d="M658 161Q648 151 645 137Q643 124 632 114Q634 109 634 108Q634 107 632 103Q627 98 623 94Q619 90 617 83Q614 81 611 78Q609 76 604 75Q604 70 601 66Q599 62 600 57Q594 58 593 53Q592 49 585 51Q582 49 579 47Q576 46 574 42Q569 46 564 41Q560 36 551 36Q539 29 532 29Q525 29 520 23Q517 22 515 24Q513 26 509 25Q508 21 504 21Q501 22 498 21Q490 13 486 13Q483 14 485 10Q475 9 461 5Q448 2 440 8Q433 6 427 6Q421 6 415 6Q410 6 409 2Q408 -2 403 -1Q395 3 390 1Q385 -1 380 -2Q375 -2 369 -4Q364 -5 360 -8Q352 -5 345 -7Q338 -9 331 -3Q326 -8 319 -6Q313 -3 306 -3Q301 -3 297 -5Q293 -7 288 -8Q283 -9 279 -9Q276 -8 271 -8Q267 -8 264 -9Q261 -10 258 -10Q251 -10 245 -9Q239 -7 233 -7Q226 -7 219 -10Q213 -13 206 -13Q197 -13 189 -11Q181 -8 173 -8Q164 -8 155 -10Q147 -12 138 -12Q133 -12 131 -9Q130 -5 128 -3Q125 -1 121 0Q117 1 115 3Q112 6 111 10Q111 15 104 14Q107 29 106 36Q106 43 103 47Q101 51 98 53Q96 55 95 60Q93 62 90 61Q87 60 84 64Q85 73 85 79Q86 85 93 92Q94 96 91 97Q89 99 87 101Q90 109 87 120Q85 132 93 138Q89 145 91 153Q93 162 93 170Q93 179 92 190Q91 201 95 209Q93 218 88 227Q84 237 80 246Q80 250 83 249Q87 249 87 257Q87 263 85 269Q84 275 89 280Q87 288 82 299Q78 310 84 317L75 341Q78 352 76 354Q74 356 74 358Q74 362 75 365Q76 368 76 372Q76 381 76 390Q76 399 74 408Q72 414 70 417Q69 421 69 428Q69 433 67 434Q65 436 65 440Q67 450 66 454Q65 459 65 464Q65 469 67 474Q69 479 69 484Q69 489 67 493Q65 498 65 501Q65 505 67 508Q69 511 69 516Q69 527 68 528Q67 530 67 532Q67 540 68 549Q70 558 65 566Q64 580 63 594Q63 609 63 621Q63 624 64 627Q65 630 65 634Q61 643 65 647Q62 658 64 659Q67 661 67 666Q67 671 66 674Q65 678 67 683Q65 688 61 690Q57 693 56 699Q64 716 75 728Q86 741 106 744Q117 752 118 748Q119 744 124 744Q137 744 147 747Q157 750 171 740Q182 742 192 738Q203 735 214 735Q222 735 228 737Q235 739 242 739Q255 739 267 735Q279 731 292 731Q298 731 303 732Q309 733 314 733Q326 733 337 729Q348 725 360 722Q364 721 367 721Q371 722 375 720Q380 718 385 715Q392 714 397 711Q401 709 404 707Q408 705 407 703Q420 705 425 700Q431 695 442 696Q444 692 447 689Q451 687 451 681Q461 676 467 667Q474 659 483 653Q485 651 488 651Q492 651 494 649Q496 647 497 644Q498 642 500 640Q511 635 512 631Q514 628 520 629Q519 618 521 610Q524 602 533 595Q529 588 528 584Q528 580 533 582Q531 576 530 575Q529 575 528 566Q528 563 532 563Q537 563 535 558Q530 556 528 556Q526 556 526 549Q526 545 528 543Q531 541 533 538Q532 527 525 514Q519 502 519 498Q522 491 520 489Q518 488 515 488Q517 482 513 479Q509 477 507 475Q503 470 502 464Q502 458 494 456Q495 451 493 448Q492 445 489 441Q487 438 485 434Q483 431 483 426Q476 427 475 423Q474 419 468 421Q467 410 463 407Q459 405 459 398Q459 392 463 388Q467 385 472 383Q478 381 483 379Q489 378 492 374Q506 373 516 367Q526 362 537 354Q543 355 548 353Q554 351 559 352Q564 346 566 345Q569 344 570 342Q572 341 574 339Q576 338 580 339Q583 333 588 329Q594 325 598 319Q603 318 605 320Q607 322 611 322L611 306Q615 298 622 291Q629 285 637 278Q639 267 640 262Q641 258 645 257Q645 249 649 242Q653 235 654 227Q659 221 656 219Q653 218 653 216Q653 208 657 199Q661 190 661 181Q661 176 659 171Q658 166 658 161ZM427 595Q418 603 415 606Q412 610 407 612Q398 616 396 618Q394 621 392 623Q390 625 386 625Q383 626 381 629L364 629Q362 629 359 632Q357 635 355 636Q349 639 341 638Q334 638 327 640Q322 642 318 644Q315 647 309 647Q295 646 289 650Q283 655 275 655Q272 655 269 654Q267 653 264 653Q260 653 257 655Q254 657 250 657Q247 657 244 656Q241 655 238 655Q235 655 232 657Q230 660 226 660Q215 657 211 658Q207 660 204 655Q191 661 175 659Q160 657 147 653Q142 643 141 629Q140 616 145 605Q138 597 141 585Q145 574 141 564Q149 560 148 547Q148 535 147 527Q147 525 145 522Q143 520 143 517Q143 507 146 492Q149 477 154 469Q152 464 149 461Q147 459 147 454Q147 448 151 445Q156 442 156 431Q156 424 158 418Q160 413 160 406Q168 408 176 406Q184 404 192 404Q197 404 200 405Q203 407 208 408Q214 403 218 405Q223 407 229 407Q244 410 253 412Q263 414 273 413Q277 414 278 417Q279 421 284 421Q298 421 310 423Q322 425 336 432Q339 430 347 430Q352 434 357 435Q363 436 368 436Q369 440 374 443Q379 447 385 451Q391 455 396 458Q402 462 405 465Q411 475 412 476Q414 478 416 480Q419 485 420 489Q422 494 425 499L425 517Q432 521 439 529Q446 538 446 546Q446 550 445 553Q444 556 444 560Q444 565 445 568Q446 572 446 577Q446 582 439 587Q432 593 427 595ZM554 239Q552 247 547 250Q542 254 537 259Q534 262 531 267Q528 272 524 274Q520 277 515 277Q511 278 507 280Q505 282 501 285Q497 289 496 289Q488 289 486 291Q485 293 483 293Q475 297 467 297Q459 297 451 300Q446 302 442 306Q438 311 433 313Q430 315 426 314Q423 314 420 315Q417 317 415 318Q413 320 409 322Q401 324 391 323Q382 323 373 324Q370 329 365 330Q360 332 357 337Q349 337 339 338Q330 340 323 335Q316 337 308 335Q301 333 293 331Q286 329 278 328Q271 327 264 332Q247 323 225 330Q220 328 216 324Q213 321 208 319Q193 315 193 314Q194 313 186 313Q172 313 165 306Q169 296 168 286Q168 276 168 265Q168 257 171 250Q174 244 174 237Q177 227 177 220Q177 214 173 209Q179 206 178 196Q177 186 175 181Q176 176 180 176Q184 177 182 170Q184 164 180 156Q177 148 175 142Q177 137 178 133Q179 129 180 125Q174 124 172 119Q171 114 169 109Q174 99 178 91Q182 84 182 73Q186 73 189 71Q193 70 197 70Q206 73 209 69Q213 66 218 66Q228 68 231 66Q235 65 238 64Q245 62 251 62Q258 62 264 62Q268 62 271 64Q274 66 277 66Q284 64 285 65Q286 66 288 66Q299 66 304 65Q310 64 313 64Q317 65 322 67Q327 69 338 75Q343 68 349 69Q356 70 362 66Q366 68 374 71Q382 75 387 75Q397 73 400 74Q403 76 407 77Q415 79 424 78Q434 77 442 79Q447 81 445 82Q444 83 453 83Q457 83 459 86Q461 90 464 92Q474 92 477 93Q480 94 483 96Q490 95 498 98Q506 101 513 104Q520 108 526 111Q532 114 535 114Q540 121 545 126Q551 132 559 135Q558 143 564 147Q570 151 572 161Q578 170 579 178Q580 187 580 192Q580 194 578 199Q577 205 574 211Q572 217 570 222Q568 227 567 228Q565 232 561 234Q557 236 554 239ZM1354 161Q1344 151 1341 137Q1339 124 1328 114Q1330 109 1330 108Q1330 107 1328 103Q1323 98 1319 94Q1315 90 1313 83Q1310 81 1307 78Q1305 76 1300 75Q1300 70 1297 66Q1295 62 1296 57Q1290 58 1289 53Q1288 49 1281 51Q1278 49 1275 47Q1272 46 1270 42Q1265 46 1260 41Q1256 36 1247 36Q1235 29 1228 29Q1221 29 1216 23Q1213 22 1211 24Q1209 26 1205 25Q1204 21 1200 21Q1197 22 1194 21Q1186 13 1182 13Q1179 14 1181 10Q1171 9 1157 5Q1144 2 1136 8Q1129 6 1123 6Q1117 6 1111 6Q1106 6 1105 2Q1104 -2 1099 -1Q1091 3 1086 1Q1081 -1 1076 -2Q1071 -2 1065 -4Q1060 -5 1056 -8Q1048 -5 1041 -7Q1034 -9 1027 -3Q1022 -8 1015 -6Q1009 -3 1002 -3Q997 -3 993 -5Q989 -7 984 -8Q979 -9 975 -9Q972 -8 967 -8Q963 -8 960 -9Q957 -10 954 -10Q947 -10 941 -9Q935 -7 929 -7Q922 -7 915 -10Q909 -13 902 -13Q893 -13 885 -11Q877 -8 869 -8Q860 -8 851 -10Q843 -12 834 -12Q829 -12 827 -9Q826 -5 824 -3Q821 -1 817 0Q813 1 811 3Q808 6 807 10Q807 15 800 14Q803 29 802 36Q802 43 799 47Q797 51 794 53Q792 55 791 60Q789 62 786 61Q783 60 780 64Q781 73 781 79Q782 85 789 92Q790 96 787 97Q785 99 783 101Q786 109 783 120Q781 132 789 138Q785 145 787 153Q789 162 789 170Q789 179 788 190Q787 201 791 209Q789 218 784 227Q780 237 776 246Q776 250 779 249Q783 249 783 257Q783 263 781 269Q780 275 785 280Q783 288 778 299Q774 310 780 317L771 341Q774 352 772 354Q770 356 770 358Q770 362 771 365Q772 368 772 372Q772 381 772 390Q772 399 770 408Q768 414 766 417Q765 421 765 428Q765 433 763 434Q761 436 761 440Q763 450 762 454Q761 459 761 464Q761 469 763 474Q765 479 765 484Q765 489 763 493Q761 498 761 501Q761 505 763 508Q765 511 765 516Q765 527 764 528Q763 530 763 532Q763 540 764 549Q766 558 761 566Q760 580 759 594Q759 609 759 621Q759 624 760 627Q761 630 761 634Q757 643 761 647Q758 658 760 659Q763 661 763 666Q763 671 762 674Q761 678 763 683Q761 688 757 690Q753 693 752 699Q760 716 771 728Q782 741 802 744Q813 752 814 748Q815 744 820 744Q833 744 843 747Q853 750 867 740Q878 742 888 738Q899 735 910 735Q918 735 924 737Q931 739 938 739Q951 739 963 735Q975 731 988 731Q994 731 999 732Q1005 733 1010 733Q1022 733 1033 729Q1044 725 1056 722Q1060 721 1063 721Q1067 722 1071 720Q1076 718 1081 715Q1088 714 1093 711Q1097 709 1100 707Q1104 705 1103 703Q1116 705 1121 700Q1127 695 1138 696Q1140 692 1143 689Q1147 687 1147 681Q1157 676 1163 667Q1170 659 1179 653Q1181 651 1184 651Q1188 651 1190 649Q1192 647 1193 644Q1194 642 1196 640Q1207 635 1208 631Q1210 628 1216 629Q1215 618 1217 610Q1220 602 1229 595Q1225 588 1224 584Q1224 580 1229 582Q1227 576 1226 575Q1225 575 1224 566Q1224 563 1228 563Q1233 563 1231 558Q1226 556 1224 556Q1222 556 1222 549Q1222 545 1224 543Q1227 541 1229 538Q1228 527 1221 514Q1215 502 1215 498Q1218 491 1216 489Q1214 488 1211 488Q1213 482 1209 479Q1205 477 1203 475Q1199 470 1198 464Q1198 458 1190 456Q1191 451 1189 448Q1188 445 1185 441Q1183 438 1181 434Q1179 431 1179 426Q1172 427 1171 423Q1170 419 1164 421Q1163 410 1159 407Q1155 405 1155 398Q1155 392 1159 388Q1163 385 1168 383Q1174 381 1179 379Q1185 378 1188 374Q1202 373 1212 367Q1222 362 1233 354Q1239 355 1244 353Q1250 351 1255 352Q1260 346 1262 345Q1265 344 1266 342Q1268 341 1270 339Q1272 338 1276 339Q1279 333 1284 329Q1290 325 1294 319Q1299 318 1301 320Q1303 322 1307 322L1307 306Q1311 298 1318 291Q1325 285 1333 278Q1335 267 1336 262Q1337 258 1341 257Q1341 249 1345 242Q1349 235 1350 227Q1355 221 1352 219Q1349 218 1349 216Q1349 208 1353 199Q1357 190 1357 181Q1357 176 1355 171Q1354 166 1354 161ZM1123 595Q1114 603 1111 606Q1108 610 1103 612Q1094 616 1092 618Q1090 621 1088 623Q1086 625 1082 625Q1079 626 1077 629L1060 629Q1058 629 1055 632Q1053 635 1051 636Q1045 639 1037 638Q1030 638 1023 640Q1018 642 1014 644Q1011 647 1005 647Q991 646 985 650Q979 655 971 655Q968 655 965 654Q963 653 960 653Q956 653 953 655Q950 657 946 657Q943 657 940 656Q937 655 934 655Q931 655 928 657Q926 660 922 660Q911 657 907 658Q903 660 900 655Q887 661 871 659Q856 657 843 653Q838 643 837 629Q836 616 841 605Q834 597 837 585Q841 574 837 564Q845 560 844 547Q844 535 843 527Q843 525 841 522Q839 520 839 517Q839 507 842 492Q845 477 850 469Q848 464 845 461Q843 459 843 454Q843 448 847 445Q852 442 852 431Q852 424 854 418Q856 413 856 406Q864 408 872 406Q880 404 888 404Q893 404 896 405Q899 407 904 408Q910 403 914 405Q919 407 925 407Q940 410 949 412Q959 414 969 413Q973 414 974 417Q975 421 980 421Q994 421 1006 423Q1018 425 1032 432Q1035 430 1043 430Q1048 434 1053 435Q1059 436 1064 436Q1065 440 1070 443Q1075 447 1081 451Q1087 455 1092 458Q1098 462 1101 465Q1107 475 1108 476Q1110 478 1112 480Q1115 485 1116 489Q1118 494 1121 499L1121 517Q1128 521 1135 529Q1142 538 1142 546Q1142 550 1141 553Q1140 556 1140 560Q1140 565 1141 568Q1142 572 1142 577Q1142 582 1135 587Q1128 593 1123 595ZM1250 239Q1248 247 1243 250Q1238 254 1233 259Q1230 262 1227 267Q1224 272 1220 274Q1216 277 1211 277Q1207 278 1203 280Q1201 282 1197 285Q1193 289 1192 289Q1184 289 1182 291Q1181 293 1179 293Q1171 297 1163 297Q1155 297 1147 300Q1142 302 1138 306Q1134 311 1129 313Q1126 315 1122 314Q1119 314 1116 315Q1113 317 1111 318Q1109 320 1105 322Q1097 324 1087 323Q1078 323 1069 324Q1066 329 1061 330Q1056 332 1053 337Q1045 337 1035 338Q1026 340 1019 335Q1012 337 1004 335Q997 333 989 331Q982 329 974 328Q967 327 960 332Q943 323 921 330Q916 328 912 324Q909 321 904 319Q889 315 889 314Q890 313 882 313Q868 313 861 306Q865 296 864 286Q864 276 864 265Q864 257 867 250Q870 244 870 237Q873 227 873 220Q873 214 869 209Q875 206 874 196Q873 186 871 181Q872 176 876 176Q880 177 878 170Q880 164 876 156Q873 148 871 142Q873 137 874 133Q875 129 876 125Q870 124 868 119Q867 114 865 109Q870 99 874 91Q878 84 878 73Q882 73 885 71Q889 70 893 70Q902 73 905 69Q909 66 914 66Q924 68 927 66Q931 65 934 64Q941 62 947 62Q954 62 960 62Q964 62 967 64Q970 66 973 66Q980 64 981 65Q982 66 984 66Q995 66 1000 65Q1006 64 1009 64Q1013 65 1018 67Q1023 69 1034 75Q1039 68 1045 69Q1052 70 1058 66Q1062 68 1070 71Q1078 75 1083 75Q1093 73 1096 74Q1099 76 1103 77Q1111 79 1120 78Q1130 77 1138 79Q1143 81 1141 82Q1140 83 1149 83Q1153 83 1155 86Q1157 90 1160 92Q1170 92 1173 93Q1176 94 1179 96Q1186 95 1194 98Q1202 101 1209 104Q1216 108 1222 111Q1228 114 1231 114Q1236 121 1241 126Q1247 132 1255 135Q1254 143 1260 147Q1266 151 1268 161Q1274 170 1275 178Q1276 187 1276 192Q1276 194 1274 199Q1273 205 1270 211Q1268 217 1266 222Q1264 227 1263 228Q1261 232 1257 234Q1253 236 1250 239ZM1869 218Q1864 196 1866 174Q1869 152 1864 131Q1862 118 1854 107Q1847 96 1849 82Q1846 81 1841 77Q1837 73 1832 68Q1828 63 1824 58Q1821 54 1820 51Q1805 39 1794 30Q1784 21 1774 11Q1766 12 1758 11Q1751 10 1746 2Q1737 4 1728 1Q1720 -1 1710 -1Q1706 -1 1703 1Q1700 4 1695 4Q1692 4 1689 2Q1686 1 1683 1Q1678 1 1672 2Q1666 3 1661 3Q1659 3 1653 1Q1647 -1 1640 -4Q1634 -6 1628 -9Q1623 -12 1622 -13Q1610 -8 1599 -3Q1588 2 1575 -1Q1563 10 1550 11Q1538 12 1524 14Q1520 14 1519 17Q1519 21 1519 24Q1505 22 1497 23Q1489 25 1483 29Q1478 34 1472 40Q1467 46 1458 52Q1460 58 1458 62Q1457 67 1454 71Q1451 76 1448 80Q1446 85 1447 93Q1440 106 1425 114Q1424 119 1422 122Q1420 125 1420 132Q1420 138 1416 139Q1412 141 1412 144Q1417 153 1424 159Q1432 165 1436 174Q1444 171 1447 172Q1450 174 1458 168Q1460 166 1465 163Q1471 160 1478 156Q1485 152 1491 149Q1497 146 1499 145Q1501 133 1508 127Q1516 121 1520 110Q1525 108 1528 106Q1531 105 1538 107Q1540 103 1544 101Q1548 99 1550 95Q1565 97 1573 93Q1581 89 1594 88Q1596 85 1598 82Q1600 80 1602 78Q1616 79 1632 78Q1649 77 1662 84Q1667 79 1672 81Q1677 83 1682 83Q1687 83 1691 80Q1696 78 1701 78Q1706 78 1710 79Q1715 80 1720 80Q1726 80 1726 85Q1727 90 1731 90Q1739 90 1747 97Q1756 104 1762 109Q1767 109 1768 112Q1770 116 1777 118Q1788 129 1788 142Q1789 155 1783 168Q1783 173 1786 177Q1790 182 1790 187Q1790 197 1783 207Q1776 217 1771 226Q1769 229 1767 229Q1765 230 1762 231Q1760 236 1758 236Q1757 237 1752 238Q1749 241 1743 245Q1737 249 1733 249Q1718 249 1717 252Q1717 255 1703 255Q1691 255 1679 250Q1676 252 1670 254Q1664 256 1657 256Q1651 257 1645 256Q1640 255 1637 252Q1635 254 1629 257Q1623 261 1621 261Q1590 261 1564 268Q1539 276 1513 276Q1500 282 1497 284Q1494 286 1488 286Q1483 292 1479 297Q1476 303 1470 307Q1470 316 1466 323Q1463 330 1458 336Q1454 342 1450 348Q1447 355 1447 364Q1440 376 1432 384Q1429 405 1432 431Q1435 458 1452 473L1452 489Q1462 489 1468 492Q1475 496 1480 501Q1486 506 1491 511Q1497 516 1505 519Q1510 521 1512 525Q1514 529 1516 534Q1538 532 1560 538Q1582 545 1604 549Q1609 550 1612 554Q1615 558 1619 561Q1626 560 1631 557Q1637 555 1643 554Q1648 552 1652 553Q1656 555 1661 555Q1666 555 1672 549Q1688 550 1696 544Q1704 538 1712 539Q1718 531 1728 527Q1738 523 1748 523Q1749 518 1753 516Q1757 514 1758 509Q1771 507 1777 498Q1784 490 1796 487Q1798 482 1800 479Q1803 477 1805 472Q1812 473 1813 471Q1815 469 1820 467Q1827 453 1832 435Q1827 427 1823 418Q1819 410 1811 405Q1785 405 1768 415Q1751 425 1734 444Q1729 446 1721 446Q1713 447 1710 450Q1700 459 1695 458Q1691 458 1686 460Q1675 462 1664 467Q1653 472 1641 472Q1635 472 1630 470Q1626 468 1621 467Q1616 466 1612 467Q1609 468 1604 468Q1596 468 1593 465Q1591 462 1589 462Q1576 462 1567 458Q1559 454 1553 452Q1549 450 1546 447Q1543 445 1542 440Q1531 438 1527 431Q1523 425 1515 422Q1512 417 1517 412Q1513 406 1515 402Q1517 399 1520 395Q1524 392 1528 387Q1532 383 1532 375Q1532 368 1538 366Q1545 365 1549 361Q1554 357 1562 352Q1570 348 1575 348Q1578 348 1580 349Q1583 350 1586 350Q1593 350 1598 347Q1604 345 1610 345Q1613 345 1616 345Q1619 346 1622 346Q1633 346 1641 342Q1650 339 1662 346Q1675 339 1684 340Q1694 341 1700 337Q1703 335 1705 333Q1708 331 1711 331Q1714 331 1716 332Q1719 333 1721 333Q1725 333 1729 331Q1733 329 1736 334Q1742 327 1751 328Q1760 329 1768 328Q1771 323 1772 321Q1773 320 1772 313Q1781 314 1786 312Q1791 311 1794 308Q1798 305 1801 302Q1805 300 1811 299Q1814 290 1819 283Q1825 276 1835 274Q1838 266 1844 259Q1850 253 1857 248Q1858 231 1869 218Z" fill="#c7d3d4" style=""></path></g></g></g></svg>